<svg version="1.1" id="Layer_1" xmlns="http://www.w3.org/2000/svg" xmlns:xlink="http://www.w3.org/1999/xlink" x="0px" y="0px"
	 width="30px" height="30px" viewBox="0 0 30 30" enable-background="new 0 0 30 30" xml:space="preserve">
<path fill="#FFFFFF" d="M2,15C2,7.832,7.832,2,15,2s13,5.832,13,13s-5.832,13-13,13S2,22.168,2,15 M0,15c0,8.284,6.716,15,15,15
	c8.285,0,15-6.716,15-15c0-8.285-6.715-15-15-15C6.716,0,0,6.715,0,15L0,15z"/>
<path fill="#FFFFFF" d="M22.061,16.061l-5.992,5.991c-0.028,0.028-0.059,0.058-0.09,0.083c-0.23,0.2-0.506,0.317-0.792,0.354
	c-0.096,0.012-0.191,0.015-0.286,0.009c-0.35-0.024-0.692-0.168-0.96-0.435c0.001,0,0,0-0.002-0.002l-6-6
	c-0.586-0.586-0.586-1.536,0-2.121C8.232,13.646,8.616,13.5,9,13.5s0.768,0.146,1.062,0.439l3.439,3.439V9
	c0-0.829,0.671-1.5,1.5-1.5c0.828,0,1.5,0.671,1.5,1.5v8.378l3.438-3.438c0.586-0.586,1.535-0.586,2.121,0
	C22.354,14.232,22.5,14.616,22.5,15S22.354,15.768,22.061,16.061z"/>
</svg>
