<svg version="1.1" id="Layer_1" xmlns="http://www.w3.org/2000/svg" xmlns:xlink="http://www.w3.org/1999/xlink" x="0px" y="0px"
	 width="30px" height="30px" viewBox="0 0 30 30" enable-background="new 0 0 30 30" xml:space="preserve">
<path fill="#FFFFFF" d="M15,2c7.168,0,13,5.832,13,13s-5.832,13-13,13S2,22.168,2,15S7.832,2,15,2 M15,0C6.716,0,0,6.716,0,15
	c0,8.285,6.716,15,15,15c8.285,0,15-6.715,15-15C30,6.716,23.285,0,15,0L15,0z"/>
<path fill="#FFFFFF" d="M13.939,22.061l-5.991-5.992c-0.028-0.028-0.058-0.059-0.083-0.09c-0.2-0.23-0.317-0.506-0.354-0.792
	c-0.012-0.096-0.015-0.191-0.009-0.286c0.024-0.35,0.168-0.692,0.435-0.96c0,0.001,0,0,0.002-0.002l6-6
	c0.586-0.586,1.536-0.586,2.121,0C16.354,8.232,16.5,8.616,16.5,9s-0.146,0.768-0.439,1.062l-3.439,3.439H21
	c0.829,0,1.5,0.671,1.5,1.5c0,0.828-0.671,1.5-1.5,1.5h-8.378l3.438,3.438c0.586,0.586,0.586,1.535,0,2.121
	C15.768,22.354,15.384,22.5,15,22.5S14.232,22.354,13.939,22.061z"/>
</svg>
