<svg version="1.1" xmlns="http://www.w3.org/2000/svg" xmlns:xlink="http://www.w3.org/1999/xlink" x="0px" y="0px" width="800px" height="400px" viewBox="0 0 800 400" enable-background="new 0 0 800 400" xml:space="preserve">
<polyline fill="#B0B5B8" points="800,400 0,400 0,0 800,0 800,400 "/>
<rect x="83" y="93" fill="#E5E5E5" width="294" height="194"/>
<path fill="#FFFFFF" d="M374,96v188H86V96H374 M380,90H80v200h300V90z"/>
<rect x="131" y="98" fill="#FBFFE6" width="197" height="185"/>
<path fill="#F4D392" d="M327,99v182H133V99H327 M330,96H130v188h200V96z"/>
<polyline fill="#E5E5E5" points="423,287 423,93 717,93 717,287 423,287 "/>
<path fill="#FFFFFF" d="M714,96v188H426V96H714 M720,90H420v200h300V90"/>
<polyline fill="#BFC4C1" points="667,290 630,290 630,350 510,350 510,290 473,290 473,365 667,365 667,290 "/>
<polyline fill="#BEBBB0" points="670,290 667,290 667,365 473,365 473,290 470,290 470,368 670,368 670,290 "/>
<polygon fill="#FBFFE6" points="473,284 473,290 510,290 510,284 510,99 473,99 "/>
<polygon fill="#FBFFE6" points="630,99 630,284 630,290 667,290 667,284 667,99 "/>
<polygon fill="#F4D392" points="470,290 473,290 473,99 510,99 510,96 470,96 "/>
<polygon fill="#F4D392" points="630,96 630,99 667,99 667,290 670,290 670,96 "/>
<rect x="173" y="153" fill="#FFFFFF" width="114" height="74"/>
<path fill="#17A6E5" d="M284,156v68H176v-68H284 M290,150H170v80h120V150z"/>
<polyline fill="#CCCCCC" points="185,169 275,169 275,167 185,167 "/>
<polyline fill="#CCCCCC" points="185,174 265,174 265,172 185,172 "/>
<polyline fill="#CCCCCC" points="185,179 275,179 275,177 185,177 "/>
<polyline fill="#CCCCCC" points="185,184 265,184 265,182 185,182 "/>
<polyline fill="#CCCCCC" points="185,189 275,189 275,187 185,187 "/>
<polyline fill="#CCCCCC" points="185,194 265,194 265,192 185,192 "/>
<polyline fill="#CCCCCC" points="185,199 275,199 275,197 185,197 "/>
<polyline fill="#CCCCCC" points="185,204 265,204 265,202 185,202 "/>
<polyline fill="#CCCCCC" points="185,209 275,209 275,207 185,207 "/>
<polyline fill="#CCCCCC" points="185,214 265,214 265,212 185,212 "/>
<path fill="#C0C4C6" d="M525,89v-2h90v2H525 M525,84v-2h80v2H525 M525,79v-2h90v2H525 M525,74v-2h80v2H525 M525,69v-2h90v2H525 M525,64v-2h80v2H525 M525,59v-2h90v2H525 M525,54v-2h80v2H525 M525,49v-2h90v2H525 M624,36H516v54h108V36"/>
<polyline fill="#BB95A0" points="630,30 510,30 510,90 516,90 516,36 624,36 624,90 630,90 630,30 "/>
<polyline fill="#B6BABC" points="615,47 525,47 525,49 615,49 615,47 "/>
<polyline fill="#B6BABC" points="605,52 525,52 525,54 605,54 605,52 "/>
<polyline fill="#B6BABC" points="615,57 525,57 525,59 615,59 615,57 "/>
<polyline fill="#B6BABC" points="605,62 525,62 525,64 605,64 605,62 "/>
<polyline fill="#B6BABC" points="615,67 525,67 525,69 615,69 615,67 "/>
<polyline fill="#B6BABC" points="605,72 525,72 525,74 605,74 605,72 "/>
<polyline fill="#B6BABC" points="615,77 525,77 525,79 615,79 615,77 "/>
<polyline fill="#B6BABC" points="605,82 525,82 525,84 605,84 605,82 "/>
<polyline fill="#B6BABC" points="615,87 525,87 525,89 615,89 615,87 "/>
<path fill="#CCD0CD" d="M525,334v-2h80v2H525 M525,329v-2h90v2H525 M525,324v-2h80v2H525 M525,319v-2h90v2H525 M525,314v-2h80v2H525 M525,309v-2h90v2H525 M525,304v-2h80v2H525 M525,299v-2h90v2H525 M525,294v-2h80v2H525 M624,290H516v54h108V290"/>
<polyline fill="#C7A1A7" points="630,290 624,290 624,344 516,344 516,290 510,290 510,350 630,350 630,290 "/>
<polyline fill="#C2C6C3" points="605,292 525,292 525,294 605,294 605,292 "/>
<polyline fill="#C2C6C3" points="615,297 525,297 525,299 615,299 615,297 "/>
<polyline fill="#C2C6C3" points="605,302 525,302 525,304 605,304 605,302 "/>
<polyline fill="#C2C6C3" points="615,307 525,307 525,309 615,309 615,307 "/>
<polyline fill="#C2C6C3" points="605,312 525,312 525,314 605,314 605,312 "/>
<polyline fill="#C2C6C3" points="615,317 525,317 525,319 615,319 615,317 "/>
<polyline fill="#C2C6C3" points="605,322 525,322 525,324 605,324 605,322 "/>
<polyline fill="#C2C6C3" points="615,327 525,327 525,329 615,329 615,327 "/>
<polyline fill="#C2C6C3" points="605,332 525,332 525,334 605,334 605,332 "/>
<path fill="#FFFFFF" d="M525,94v-2h80v2H525 M624,90H516v6h108V90"/>
<path fill="#FFFFFF" d="M525,274v-2h80v2H525 M525,269v-2h90v2H525 M525,264v-2h80v2H525 M525,259v-2h90v2H525 M525,254v-2h80v2H525
	 M525,249v-2h90v2H525 M525,244v-2h80v2H525 M525,239v-2h90v2H525 M525,234v-2h80v2H525 M525,229v-2h90v2H525 M525,214v-2h80v2H525
	 M525,209v-2h90v2H525 M525,204v-2h80v2H525 M525,199v-2h90v2H525 M525,194v-2h80v2H525 M525,189v-2h90v2H525 M525,184v-2h80v2H525
	 M525,179v-2h90v2H525 M525,174v-2h80v2H525 M525,169v-2h90v2H525 M525,154v-2h80v2H525 M525,149v-2h90v2H525 M525,144v-2h80v2H525
	 M525,139v-2h90v2H525 M525,134v-2h80v2H525 M525,129v-2h90v2H525 M525,124v-2h80v2H525 M525,119v-2h90v2H525 M525,114v-2h80v2H525
	 M525,109v-2h90v2H525 M624,99H516v185h108V99"/>
<path fill="#FFFFFF" d="M525,289v-2h90v2H525 M624,284H516v6h108V284"/>
<polyline fill="#FFFFFF" points="624,96 516,96 516,99 624,99 624,96 "/>
<polyline fill="#17A6E5" points="630,90 624,90 624,96 630,96 630,90 "/>
<polyline fill="#17A6E5" points="630,99 624,99 624,284 630,284 630,99 "/>
<polyline fill="#17A6E5" points="630,284 624,284 624,290 630,290 630,284 "/>
<polyline fill="#17A6E5" points="630,96 624,96 624,99 630,99 630,96 "/>
<polyline fill="#17A6E5" points="516,90 510,90 510,96 516,96 516,90 "/>
<polyline fill="#17A6E5" points="516,99 510,99 510,284 516,284 516,99 "/>
<polyline fill="#17A6E5" points="516,284 510,284 510,290 516,290 516,284 "/>
<polyline fill="#17A6E5" points="516,96 510,96 510,99 516,99 516,96 "/>
<polyline fill="#CCCCCC" points="615,167 525,167 525,169 615,169 615,167 "/>
<polyline fill="#CCCCCC" points="605,172 525,172 525,174 605,174 605,172 "/>
<polyline fill="#CCCCCC" points="615,177 525,177 525,179 615,179 615,177 "/>
<polyline fill="#CCCCCC" points="605,182 525,182 525,184 605,184 605,182 "/>
<polyline fill="#CCCCCC" points="615,187 525,187 525,189 615,189 615,187 "/>
<polyline fill="#CCCCCC" points="605,192 525,192 525,194 605,194 605,192 "/>
<polyline fill="#CCCCCC" points="615,197 525,197 525,199 615,199 615,197 "/>
<polyline fill="#CCCCCC" points="605,202 525,202 525,204 605,204 605,202 "/>
<polyline fill="#CCCCCC" points="615,207 525,207 525,209 615,209 615,207 "/>
<polyline fill="#CCCCCC" points="605,212 525,212 525,214 605,214 605,212 "/>
<polyline fill="#CCCCCC" points="615,227 525,227 525,229 615,229 615,227 "/>
<polyline fill="#CCCCCC" points="605,232 525,232 525,234 605,234 605,232 "/>
<polyline fill="#CCCCCC" points="615,237 525,237 525,239 615,239 615,237 "/>
<polyline fill="#CCCCCC" points="605,242 525,242 525,244 605,244 605,242 "/>
<polyline fill="#CCCCCC" points="615,247 525,247 525,249 615,249 615,247 "/>
<polyline fill="#CCCCCC" points="605,252 525,252 525,254 605,254 605,252 "/>
<polyline fill="#CCCCCC" points="615,257 525,257 525,259 615,259 615,257 "/>
<polyline fill="#CCCCCC" points="605,262 525,262 525,264 605,264 605,262 "/>
<polyline fill="#CCCCCC" points="615,267 525,267 525,269 615,269 615,267 "/>
<polyline fill="#CCCCCC" points="605,272 525,272 525,274 605,274 605,272 "/>
<polyline fill="#CCCCCC" points="615,287 525,287 525,289 615,289 615,287 "/>
<polyline fill="#CCCCCC" points="615,107 525,107 525,109 615,109 615,107 "/>
<polyline fill="#CCCCCC" points="605,112 525,112 525,114 605,114 605,112 "/>
<polyline fill="#CCCCCC" points="615,117 525,117 525,119 615,119 615,117 "/>
<polyline fill="#CCCCCC" points="605,122 525,122 525,124 605,124 605,122 "/>
<polyline fill="#CCCCCC" points="615,127 525,127 525,129 615,129 615,127 "/>
<polyline fill="#CCCCCC" points="605,132 525,132 525,134 605,134 605,132 "/>
<polyline fill="#CCCCCC" points="615,137 525,137 525,139 615,139 615,137 "/>
<polyline fill="#CCCCCC" points="605,142 525,142 525,144 605,144 605,142 "/>
<polyline fill="#CCCCCC" points="615,147 525,147 525,149 615,149 615,147 "/>
<polyline fill="#CCCCCC" points="605,152 525,152 525,154 605,154 605,152 "/>
<polyline fill="#CCCCCC" points="605,92 525,92 525,94 605,94 605,92 "/>
</svg>
