<svg viewBox="0 0 400 225" xmlns="http://www.w3.org/2000/svg">
  <style>
    .st0{fill:#fff}.st1{fill:#1d97bf}.st2{fill:#494b4d;font-family:"Helvetica Neue",Arial,sans-serif;font-size:20px;}
  </style>
  <path class="st0" d="M0 0h400v225H0z"/>
  <g transform="matrix(2 0 0 2 176 40)">
    <path class="st0" d="M16.557 1H7.443L1 7.443v9.113L7.443 23h9.113L23 16.557V7.443L16.557 1z"/>
    <path class="st1" d="M16.143 2L22 7.858v8.284L16.143 22H7.857L2 16.142V7.858L7.857 2h8.286zm.828-2H7.029L0 7.029v9.941L7.029 24h9.941L24 16.971V7.029L16.971 0z"/>
    <path class="st1" d="M10.5 6h3l-1 8h-1z"/>
    <circle class="st1" cx="12" cy="17" r="1.25"/>
  </g>
  <text class="st2" x="200" y="150" text-anchor="middle" alignment-baseline="central" transform="translate(0 -28)">
    <tspan x="200" dy="0">Image failed to load due</tspan> <tspan x="200" dy="28">to connectivity issues,</tspan> <tspan x="200" dy="28">are you offline?</tspan>
  </text>
</svg>
