<?xml version="1.0" encoding="utf-8"?>
<!-- Generator: Adobe Illustrator 16.0.0, SVG Export Plug-In . SVG Version: 6.00 Build 0)  -->
<!DOCTYPE svg PUBLIC "-//W3C//DTD SVG 1.1//EN" "http://www.w3.org/Graphics/SVG/1.1/DTD/svg11.dtd">
<svg version="1.1" id="Layer_1" xmlns="http://www.w3.org/2000/svg" xmlns:xlink="http://www.w3.org/1999/xlink" x="0px" y="0px"
	 width="1000px" height="200px" viewBox="0 0 1000 200" enable-background="new 0 0 1000 200" xml:space="preserve">
<rect fill="#FFFFFF" width="1000" height="200"/>
<g id="Layer_1_1_">
</g>
<rect x="65" y="20" fill="#8FBBCC" width="150" height="160"/>
<rect x="245" y="20" fill="#8FBBCC" width="150" height="160"/>
<rect x="425" y="20" fill="#8FBBCC" width="150" height="160"/>
<rect x="605" y="20" fill="#8FBBCC" width="150" height="160"/>
<rect x="785" y="20" fill="#8FBBCC" width="150" height="160"/>
<line fill="none" stroke="#E6677C" stroke-width="4" stroke-miterlimit="10" x1="65" y1="0" x2="65" y2="200"/>
<line fill="none" stroke="#E6677C" stroke-width="4" stroke-miterlimit="10" x1="215" y1="0" x2="215" y2="200"/>
<line fill="none" stroke="#E6677C" stroke-width="4" stroke-miterlimit="10" x1="245" y1="0" x2="245" y2="200"/>
<line fill="none" stroke="#E6677C" stroke-width="4" stroke-miterlimit="10" x1="395" y1="0" x2="395" y2="200"/>
<line fill="none" stroke="#E6677C" stroke-width="4" stroke-miterlimit="10" x1="425" y1="0" x2="425" y2="200"/>
<line fill="none" stroke="#E6677C" stroke-width="4" stroke-miterlimit="10" x1="575" y1="0" x2="575" y2="200"/>
<line fill="none" stroke="#E6677C" stroke-width="4" stroke-miterlimit="10" x1="605" y1="0" x2="605" y2="200"/>
<line fill="none" stroke="#E6677C" stroke-width="4" stroke-miterlimit="10" x1="755" y1="0" x2="755" y2="200"/>
<line fill="none" stroke="#E6677C" stroke-width="4" stroke-miterlimit="10" x1="785" y1="0" x2="785" y2="200"/>
<line fill="none" stroke="#E6677C" stroke-width="4" stroke-miterlimit="10" x1="935" y1="0" x2="935" y2="200"/>
</svg>
