<?xml version="1.0" encoding="utf-8"?>
<!-- Generator: Adobe Illustrator 16.0.0, SVG Export Plug-In . SVG Version: 6.00 Build 0)  -->
<!DOCTYPE svg PUBLIC "-//W3C//DTD SVG 1.1//EN" "http://www.w3.org/Graphics/SVG/1.1/DTD/svg11.dtd">
<svg version="1.1" xmlns="http://www.w3.org/2000/svg" xmlns:xlink="http://www.w3.org/1999/xlink" x="0px" y="0px" width="1000px"
	 height="200px" viewBox="0 0 1000 200" enable-background="new 0 0 1000 200" xml:space="preserve">
<g id="Layer_1">
</g>
<g id="Layer_2">
	<rect fill="#FFFFFF" width="1000" height="200"/>
	<g opacity="0.7">
		<rect x="935" y="20" fill="#FFAF66" width="15" height="160"/>
	</g>
	<g opacity="0.7">
		<rect x="50" y="20" fill="#FFAF66" width="15" height="160"/>
	</g>
	<g opacity="0.7">
		<rect x="65" y="20" fill="#8FBBCC" width="150" height="160"/>
	</g>
	<g opacity="0.7">
		<rect x="215" y="20" fill="#FFF080" width="30" height="160"/>
	</g>
	<g opacity="0.7">
		<rect x="245" y="20" fill="#8FBBCC" width="150" height="160"/>
	</g>
	<g opacity="0.7">
		<rect x="395" y="20" fill="#FFF080" width="30" height="160"/>
	</g>
	<g opacity="0.7">
		<rect x="425" y="20" fill="#8FBBCC" width="150" height="160"/>
	</g>
	<g opacity="0.7">
		<rect x="575" y="20" fill="#FFF080" width="30" height="160"/>
	</g>
	<g opacity="0.7">
		<rect x="605" y="20" fill="#8FBBCC" width="150" height="160"/>
	</g>
	<g opacity="0.7">
		<rect x="755" y="20" fill="#FFF080" width="30" height="160"/>
	</g>
	<g opacity="0.7">
		<rect x="785" y="20" fill="#8FBBCC" width="150" height="160"/>
	</g>
	<g>
		<line fill="none" stroke="#E6677C" stroke-width="4" stroke-miterlimit="10" x1="65" y1="0" x2="65" y2="200"/>
		<line fill="none" stroke="#E6677C" stroke-width="4" stroke-miterlimit="10" x1="215" y1="0" x2="215" y2="200"/>
		<line fill="none" stroke="#E6677C" stroke-width="4" stroke-miterlimit="10" x1="245" y1="0" x2="245" y2="200"/>
		<line fill="none" stroke="#E6677C" stroke-width="4" stroke-miterlimit="10" x1="395" y1="0" x2="395" y2="200"/>
		<line fill="none" stroke="#E6677C" stroke-width="4" stroke-miterlimit="10" x1="425" y1="0" x2="425" y2="200"/>
		<line fill="none" stroke="#E6677C" stroke-width="4" stroke-miterlimit="10" x1="575" y1="0" x2="575" y2="200"/>
		<line fill="none" stroke="#E6677C" stroke-width="4" stroke-miterlimit="10" x1="605" y1="0" x2="605" y2="200"/>
		<line fill="none" stroke="#E6677C" stroke-width="4" stroke-miterlimit="10" x1="755" y1="0" x2="755" y2="200"/>
		<line fill="none" stroke="#E6677C" stroke-width="4" stroke-miterlimit="10" x1="785" y1="0" x2="785" y2="200"/>
		<line fill="none" stroke="#E6677C" stroke-width="4" stroke-miterlimit="10" x1="935" y1="0" x2="935" y2="200"/>
	</g>
	<g>
		<rect x="50" y="20" fill="none" stroke="#000000" stroke-width="2" stroke-miterlimit="10" width="180" height="160"/>
		<rect x="230" y="20" fill="none" stroke="#000000" stroke-width="2" stroke-miterlimit="10" width="180" height="160"/>
		<rect x="410" y="20" fill="none" stroke="#000000" stroke-width="2" stroke-miterlimit="10" width="180" height="160"/>
		<rect x="590" y="20" fill="none" stroke="#000000" stroke-width="2" stroke-miterlimit="10" width="180" height="160"/>
		<rect x="770" y="20" fill="none" stroke="#000000" stroke-width="2" stroke-miterlimit="10" width="180" height="160"/>
	</g>
</g>
</svg>
