<?xml version="1.0" encoding="utf-8"?>
<!-- Generator: Adobe Illustrator 16.0.0, SVG Export Plug-In . SVG Version: 6.00 Build 0)  -->
<!DOCTYPE svg PUBLIC "-//W3C//DTD SVG 1.1//EN" "http://www.w3.org/Graphics/SVG/1.1/DTD/svg11.dtd">
<svg version="1.1" id="Layer_1" xmlns="http://www.w3.org/2000/svg" xmlns:xlink="http://www.w3.org/1999/xlink" x="0px" y="0px"
	 width="880px" height="290px" viewBox="0 0 880 290" enable-background="new 0 0 880 290" xml:space="preserve">
<rect fill="#FFFFFF" width="880" height="290"/>
<g>
	<rect x="10" y="10" fill="#7AB9CC" width="100" height="60"/>
	<g>
		<polygon fill="#FFFFFF" points="60,20 66.18,33.167 80,35.279 70,45.527 72.36,60 60,53.167 47.639,60 50,45.527 40,35.279 
			53.82,33.167 		"/>
	</g>
	<rect x="10" y="80" fill="#7AB9CC" width="100" height="60"/>
	<g>
		<polygon fill="#FFFFFF" points="60,90 66.18,103.168 80,105.279 70,115.527 72.36,130 60,123.167 47.639,130 50,115.527 
			40,105.279 53.82,103.168 		"/>
	</g>
	<rect x="10" y="150" fill="#7AB9CC" width="100" height="60"/>
	<g>
		<polygon fill="#FFFFFF" points="60,160 66.18,173.168 80,175.279 70,185.527 72.36,200 60,193.167 47.639,200 50,185.527 
			40,175.279 53.82,173.168 		"/>
	</g>
	<rect x="10" y="220" fill="#7AB9CC" width="100" height="60"/>
	<g>
		<polygon fill="#FFFFFF" points="60,230 66.18,243.168 80,245.279 70,255.527 72.36,270 60,263.167 47.639,270 50,255.527 
			40,245.279 53.82,243.168 		"/>
	</g>
</g>
<g>
	<rect x="170" y="80" fill="#7AB9CC" width="100" height="60"/>
	<g>
		<polygon fill="#FFFFFF" points="220,90 226.18,103.167 240,105.279 230,115.527 232.36,130 220,123.167 207.639,130 210,115.527 
			200,105.279 213.82,103.167 		"/>
	</g>
	<rect x="170" y="150" fill="#7AB9CC" width="100" height="60"/>
	<g>
		<polygon fill="#FFFFFF" points="220,160 226.18,173.168 240,175.279 230,185.527 232.36,200 220,193.167 207.639,200 210,185.527 
			200,175.279 213.82,173.168 		"/>
	</g>
	<rect x="280" y="80" fill="#7AB9CC" width="100" height="60"/>
	<g>
		<polygon fill="#FFFFFF" points="330,90 336.18,103.168 350,105.279 340,115.527 342.36,130 330,123.167 317.639,130 320,115.527 
			310,105.279 323.82,103.168 		"/>
	</g>
	<rect x="280" y="150" fill="#7AB9CC" width="100" height="60"/>
	<g>
		<polygon fill="#FFFFFF" points="330,160 336.18,173.168 350,175.279 340,185.527 342.36,200 330,193.167 317.639,200 320,185.527 
			310,175.279 323.82,173.168 		"/>
	</g>
</g>
<g>
	<rect x="440" y="115" fill="#7AB9CC" width="100" height="60"/>
	<g>
		<polygon fill="#FFFFFF" points="490,125 496.18,138.168 510,140.279 500,150.527 502.36,165 490,158.167 477.639,165 480,150.527 
			470,140.279 483.82,138.168 		"/>
	</g>
	<rect x="550" y="115" fill="#7AB9CC" width="100" height="60"/>
	<g>
		<polygon fill="#FFFFFF" points="600,125 606.18,138.168 620,140.279 610,150.527 612.36,165 600,158.167 587.639,165 590,150.527 
			580,140.279 593.82,138.168 		"/>
	</g>
	<rect x="660" y="115" fill="#7AB9CC" width="100" height="60"/>
	<g>
		<polygon fill="#FFFFFF" points="710,125 716.18,138.168 730,140.279 720,150.527 722.36,165 710,158.167 697.639,165 700,150.527 
			690,140.279 703.82,138.168 		"/>
	</g>
	<rect x="770" y="115" fill="#7AB9CC" width="100" height="60"/>
	<g>
		<polygon fill="#FFFFFF" points="820,125 826.18,138.168 840,140.279 830,150.527 832.36,165 820,158.167 807.639,165 810,150.527 
			800,140.279 813.82,138.168 		"/>
	</g>
</g>
<line fill="none" stroke="#E6677C" stroke-width="4" stroke-miterlimit="10" x1="10" y1="0" x2="10" y2="290"/>
<line fill="none" stroke="#E6677C" stroke-width="4" stroke-miterlimit="10" x1="110" y1="0" x2="110" y2="290"/>
<line fill="none" stroke="#E6677C" stroke-width="4" stroke-miterlimit="10" x1="170" y1="70" x2="170" y2="220"/>
<line fill="none" stroke="#E6677C" stroke-width="4" stroke-miterlimit="10" x1="270" y1="70" x2="270" y2="220"/>
<line fill="none" stroke="#E6677C" stroke-width="4" stroke-miterlimit="10" x1="280" y1="70" x2="280" y2="220"/>
<line fill="none" stroke="#E6677C" stroke-width="4" stroke-miterlimit="10" x1="380" y1="70" x2="380" y2="220"/>
<line fill="none" stroke="#E6677C" stroke-width="4" stroke-miterlimit="10" x1="440" y1="105" x2="440" y2="185"/>
<line fill="none" stroke="#E6677C" stroke-width="4" stroke-miterlimit="10" x1="540" y1="105" x2="540" y2="185"/>
<line fill="none" stroke="#E6677C" stroke-width="4" stroke-miterlimit="10" x1="550" y1="105" x2="550" y2="185"/>
<line fill="none" stroke="#E6677C" stroke-width="4" stroke-miterlimit="10" x1="650" y1="105" x2="650" y2="185"/>
<line fill="none" stroke="#E6677C" stroke-width="4" stroke-miterlimit="10" x1="660" y1="105" x2="660" y2="185"/>
<line fill="none" stroke="#E6677C" stroke-width="4" stroke-miterlimit="10" x1="760" y1="105" x2="760" y2="185"/>
<line fill="none" stroke="#E6677C" stroke-width="4" stroke-miterlimit="10" x1="770" y1="105" x2="770" y2="185"/>
<line fill="none" stroke="#E6677C" stroke-width="4" stroke-miterlimit="10" x1="870" y1="105" x2="870" y2="185"/>
</svg>
