<?xml version="1.0" standalone="no"?>
<!DOCTYPE svg PUBLIC "-//W3C//DTD SVG 20010904//EN"
 "http://www.w3.org/TR/2001/REC-SVG-20010904/DTD/svg10.dtd">
<svg version="1.0" xmlns="http://www.w3.org/2000/svg"
 width="16.000000pt" height="16.000000pt" viewBox="0 0 16.000000 16.000000"
 preserveAspectRatio="xMidYMid meet">
<g transform="translate(0.000000,16.000000) scale(0.003077,-0.003077)"
fill="#000000" stroke="none">
<path d="M266 5083 c-3 -3 1 -17 8 -32 7 -14 41 -114 75 -221 34 -107 66 -204
71 -215 10 -25 50 -158 50 -168 0 -18 -29 -4 -45 21 -10 15 -24 31 -32 35 -8
5 -18 20 -24 34 -9 24 -44 30 -44 8 0 -6 31 -71 68 -146 37 -75 88 -194 113
-265 25 -71 66 -185 91 -254 24 -69 66 -188 92 -265 27 -77 63 -178 81 -225
17 -47 43 -119 57 -160 13 -41 28 -84 33 -95 5 -11 18 -47 30 -80 12 -33 34
-94 50 -135 16 -41 52 -138 80 -215 54 -144 62 -166 149 -393 29 -73 84 -224
122 -335 39 -111 77 -215 84 -232 7 -16 52 -129 100 -250 48 -121 95 -240 105
-265 41 -103 102 -246 110 -255 4 -5 11 -21 15 -35 4 -14 16 -43 26 -65 47
-105 87 -214 93 -257 4 -26 11 -50 17 -53 5 -4 6 -11 3 -17 -5 -8 1 -9 17 -4
13 4 35 9 49 12 14 3 56 14 95 25 38 12 79 23 90 26 20 5 75 20 155 44 25 7
50 16 56 21 6 4 21 10 35 12 13 3 25 5 27 7 1 1 6 2 11 3 5 0 13 4 17 8 4 5
16 8 26 8 10 0 29 6 41 13 29 18 40 16 69 -8 67 -57 531 -433 616 -498 10 -8
16 -7 23 4 5 8 9 10 9 5 0 -6 6 -2 13 8 10 14 18 15 39 7 31 -12 33 -10 42 43
4 22 32 85 61 140 48 90 102 202 380 786 117 245 273 584 390 847 59 134 111
240 116 237 5 -3 27 -64 49 -137 48 -155 190 -518 286 -732 37 -82 81 -184 99
-225 50 -118 59 -135 79 -138 17 -4 18 1 12 40 -3 23 -9 63 -12 88 -3 25 -19
104 -35 175 -17 72 -37 166 -45 210 -8 44 -21 114 -30 155 -78 393 -124 632
-129 665 -3 22 -10 51 -15 65 -5 14 -19 64 -30 113 -37 160 -24 148 -202 191
-85 21 -159 41 -166 44 -8 6 1 38 29 112 34 89 417 1222 424 1254 1 6 5 18 8
26 13 32 98 286 102 305 2 11 17 58 34 105 16 47 41 137 56 200 15 63 31 131
36 150 5 20 18 46 30 59 26 28 14 41 -26 30 -20 -6 -41 -25 -63 -56 -17 -27
-53 -70 -78 -98 -25 -27 -67 -73 -93 -101 -25 -28 -83 -91 -128 -140 -44 -49
-175 -184 -290 -300 -114 -117 -395 -402 -623 -634 -228 -233 -448 -455 -489
-494 -108 -104 -346 -347 -371 -378 -16 -21 -26 -26 -38 -19 -9 5 -28 7 -42 6
-14 -2 -31 -4 -38 -4 -8 -1 -59 -47 -114 -103 l-100 -103 -70 75 c-128 138
-153 165 -203 225 -54 64 -76 90 -124 145 -34 37 -117 138 -283 342 -57 69
-168 204 -247 300 -79 95 -156 189 -172 208 -67 84 -125 156 -136 170 -80 103
-312 391 -322 400 -4 3 -40 48 -82 100 -42 52 -108 133 -147 179 -39 45 -92
115 -119 155 -26 39 -55 80 -65 90 -10 11 -20 27 -23 35 -6 19 -40 43 -49 34z"/>
</g>
</svg>
