<svg version="1.1" xmlns="http://www.w3.org/2000/svg" xmlns:xlink="http://www.w3.org/1999/xlink" x="0px" y="0px" width="30px" height="30px" viewBox="0 0 30 30" enable-background="new 0 0 30 30" xml:space="preserve">
<path fill="#FFFFFF" d="M15,2c7.168,0,13,5.832,13,13s-5.832,13-13,13S2,22.168,2,15S7.832,2,15,2 M15,0C6.715,0,0,6.716,0,15 c0,8.285,6.715,15,15,15c8.284,0,15-6.715,15-15C30,6.716,23.284,0,15,0L15,0z"/>
<path fill="#FFFFFF" d="M15,22.5c-0.384,0-0.768-0.146-1.061-0.439c-0.586-0.586-0.586-1.535,0-2.121l3.439-3.439H9 c-0.829,0-1.5-0.672-1.5-1.5c0-0.829,0.671-1.5,1.5-1.5h8.379l-3.439-3.439C13.646,9.768,13.5,9.384,13.5,9 s0.146-0.768,0.439-1.061c0.586-0.586,1.535-0.586,2.121,0l6,6c0.003,0.002,0.003,0.003,0.003,0.002 c0.266,0.268,0.41,0.61,0.434,0.96c0.006,0.095,0.003,0.19-0.009,0.286c-0.036,0.285-0.153,0.561-0.353,0.792 c-0.026,0.031-0.055,0.061-0.083,0.089l-5.992,5.992C15.768,22.354,15.384,22.5,15,22.5z"/>
</svg>
