<svg version="1.1" id="Layer_1" xmlns="http://www.w3.org/2000/svg" xmlns:xlink="http://www.w3.org/1999/xlink" x="0px" y="0px"
	 width="30px" height="30px" viewBox="0 0 30 30" enable-background="new 0 0 30 30" xml:space="preserve">
<path fill="#FFFFFF" d="M28,15c0,7.168-5.832,13-13,13S2,22.168,2,15S7.832,2,15,2S28,7.832,28,15 M30,15c0-8.284-6.716-15-15-15
	C6.715,0,0,6.716,0,15c0,8.285,6.715,15,15,15C23.284,30,30,23.285,30,15L30,15z"/>
<path fill="#FFFFFF" d="M7.939,13.939l5.992-5.991c0.028-0.028,0.059-0.058,0.09-0.083c0.23-0.2,0.506-0.317,0.792-0.354
	c0.096-0.012,0.191-0.015,0.286-0.009c0.35,0.024,0.692,0.168,0.959,0.435c0,0,0,0,0.002,0.002l6,6c0.586,0.586,0.586,1.536,0,2.121
	C21.768,16.354,21.384,16.5,21,16.5s-0.768-0.146-1.062-0.439l-3.438-3.439V21c0,0.829-0.671,1.5-1.5,1.5
	c-0.828,0-1.5-0.671-1.5-1.5v-8.378l-3.438,3.438c-0.586,0.586-1.535,0.586-2.121,0C7.646,15.768,7.5,15.384,7.5,15
	S7.646,14.232,7.939,13.939z"/>
</svg>
