<?xml version="1.0" encoding="utf-8"?>
<!DOCTYPE svg PUBLIC "-//W3C//DTD SVG 1.1//EN" "http://www.w3.org/Graphics/SVG/1.1/DTD/svg11.dtd">
<svg version="1.1" id="Layer_1" xmlns="http://www.w3.org/2000/svg" xmlns:xlink="http://www.w3.org/1999/xlink" x="0px" y="0px"
	 width="30em" height="160em" viewBox="0 0 30 160" enable-background="new 0 0 30 160" xml:space="preserve"> 
<g id="icons">
	<g id="delete">
		<path fill="#333333" d="M19.831,139.583l-6.2-6.399C13.519,133.064,13.362,133,13.2,133H0.6c-0.332,0-0.6,0.27-0.6,0.6V146.4
			c0,0.33,0.269,0.6,0.6,0.6h12.6c0.162,0,0.318-0.064,0.431-0.184l6.2-6.399C20.057,140.186,20.057,139.814,19.831,139.583z
			 M12.946,145.8H1.2v-11.6h11.746l5.619,5.8L12.946,145.8z"/>
		<polygon fill="#333333" points="10.329,135.572 7.1,138.857 3.871,135.572 2.729,136.693 5.979,140 2.729,143.307 3.871,144.428 
			7.1,141.143 10.329,144.428 11.471,143.307 8.222,140 11.471,136.693 		"/>
	</g>
	<g id="tag">
		<path fill="#333333" d="M19.607,102.025L7.581,90H0v7.58l12.027,12.027c0.523,0.522,1.371,0.522,1.895,0l5.686-5.687
			C20.131,103.398,20.131,102.55,19.607,102.025z M4.385,96.211c-0.523-0.523-0.523-1.371,0-1.895c0.523-0.523,1.372-0.523,1.895,0
			c0.523,0.522,0.523,1.371,0,1.895C5.757,96.734,4.908,96.734,4.385,96.211z"/>
	</g>
	<g id="print">
		<polygon fill="#333333" points="4.2,50.8 4.2,54.6 5,54.6 5,51.6 15,51.6 15,54.6 15.8,54.6 15.8,50.8 		"/>
		<polygon fill="#333333" points="15,59.8 15,70 8.8,70 8.8,66.2 5,66.2 5,59.8 4.2,59.8 4.2,66.8 8.2,70.8 15.8,70.8 15.8,59.8 		
			"/>
		<rect x="6.2" y="59.8" fill="#333333" width="7.6" height="0.6"/>
		<rect x="6.2" y="62" fill="#333333" width="7.6" height="0.6"/>
		<rect x="6.2" y="64.2" fill="#333333" width="7.6" height="0.6"/>
		<path fill="#333333" d="M0,55v9.6h3.8v-2H2V57h16v5.6h-1.8v2H20V55H0z M19.4,56.399H18.6v-0.8H19.4V56.399z"/>
	</g>
	<g id="share">
		<path fill="#333333" d="M18,26.788H0V13.212h18V26.788L18,26.788z M2.13,25.532h13.74l-4.521-4.629l-0.856,0.862
			c-0.37,0.37-0.9,0.582-1.458,0.582c-0.004,0-0.007-0.001-0.01-0.001c-0.56-0.002-1.092-0.219-1.461-0.595l-0.87-0.881L2.13,25.532
			L2.13,25.532z M1.256,15.367v9.263l4.555-4.651L1.256,15.367L1.256,15.367z M12.233,20.013l4.511,4.617v-9.159L12.233,20.013
			L12.233,20.013z M2.133,14.468l6.326,6.403c0.137,0.14,0.345,0.22,0.571,0.22c0.001,0,0.002,0,0.004,0
			c0.223,0,0.436-0.078,0.568-0.213l6.367-6.41H2.133L2.133,14.468z"/>
	</g>
</g>
</svg>
