<?xml version="1.0" encoding="utf-8"?>
<!DOCTYPE svg PUBLIC "-//W3C//DTD SVG 1.1//EN" "http://www.w3.org/Graphics/SVG/1.1/DTD/svg11.dtd">
<svg version="1.1" id="Layer_1" xmlns="http://www.w3.org/2000/svg" xmlns:xlink="http://www.w3.org/1999/xlink" x="0px" y="0px"
	 width="300px" height="80px" viewBox="0 0 300 80" enable-background="new 0 0 300 80" xml:space="preserve">
<path fill="#3567AF" d="M278.128,45.78c3.979-1.509,9.491-5.188,9.491-14.013c0-9.878-6.504-15.547-17.855-15.547h-18.487v48.686
	l9.546-0.021V47.597h6.675l0.387-0.063L279.6,64.848h11.54L278.128,45.78z M269.554,38.75h-8.731V25.206h8.731
	c4.423,0,8.522,0.821,8.522,6.771C278.076,36.788,275.607,38.75,269.554,38.75z"/>
<path fill="#3567AF" d="M201.179,35.847l-2.507-1.074c-4.299-1.86-6.165-3.081-6.165-6.089c0-2.435,1.866-4.299,4.805-4.299
	c2.864,0,4.728,1.218,6.441,4.299l7.816-5.015c-3.296-5.803-7.883-8.023-14.258-8.023c-8.955,0-14.687,5.731-14.687,13.255
	c0,8.163,4.8,12.034,12.035,15.114l2.505,1.074c4.59,2.004,7.31,3.221,7.31,6.66c0,2.866-2.651,4.943-6.809,4.943
	c-4.943,0-7.732-2.577-9.885-6.088l-8.165,4.726c2.935,5.806,8.955,10.247,18.267,10.247c9.526,0,16.621-4.943,16.621-13.97
	C214.504,43.226,209.702,39.499,201.179,35.847z"/>
<polygon fill="#3567AF" points="226.807,45.779 244.824,45.779 244.824,37.185 226.807,37.185 226.807,25.032 247.471,25.032 
	247.471,16.22 216.774,16.22 216.774,64.931 248.477,64.931 248.477,56.119 226.807,56.119 "/>
<path fill="#3567AF" d="M34.88,38.345c4.203-1.355,6.84-4.42,6.84-8.911c0-7.587-5.064-13.23-14.111-13.23H8.86v48.472h19.598
	c10.122,0,16.255-5.661,16.255-14.282C44.713,44.335,41.51,39.913,34.88,38.345z M18.841,24.971h8.196
	c3.062,0,4.847,1.751,4.847,5.25c0,3.482-2.137,5.246-5.345,5.246h-7.698V24.971z M28.036,55.907h-9.195V43.949h9.195
	c4.047,0,6.607,2.011,6.628,5.98C34.644,53.895,32.083,55.907,28.036,55.907z"/>
<polygon fill="#3567AF" points="173.684,16.305 170.804,24.248 164.309,41.886 152.059,16.808 151.619,15.874 151.166,15.874 
	151.119,15.874 150.662,15.874 150.226,16.808 137.974,41.886 131.482,24.248 128.6,16.305 117.994,16.305 135.979,65.448 
	136.981,65.448 141.604,55.668 151.143,36.389 160.682,55.668 165.3,65.448 166.307,65.448 184.282,16.305 "/>
<path fill="#3567AF" d="M97.027,15.577c-6.788,0-12.898,2.409-17.447,6.466c-2.96-3.768-8.015-5.823-14.823-5.823H46.27v48.686
	l9.542-0.021V47.597h6.678l0.39-0.063l11.712,17.314h11.543L73.118,45.78c3.244-1.23,7.5-3.907,8.968-9.633
	c1.815-6.713,7.944-11.65,15.231-11.65c8.717,0,15.785,7.068,15.785,15.787c0,8.719-7.068,15.784-15.785,15.784
	c-1.452,0-2.855-0.2-4.191-0.57l6.678,9.479c12.892-1.27,22.77-11.306,22.77-24.63C122.573,26.081,111.249,15.577,97.027,15.577z
	 M64.548,38.75h-8.736V25.206h8.736c4.423,0,8.519,0.821,8.519,6.771C73.066,36.788,70.602,38.75,64.548,38.75z"/>
</svg>
