<svg xmlns="http://www.w3.org/2000/svg" width="1180" height="250" viewBox="0 0 1180 250">
    <style>
        .st0{fill:#fff}.st1{fill:#a1e5cf}.st2{fill:#494b4d}.st3{fill:#fffbcc}.st4{fill:#1d97bf}.st5{fill:#ff6680}
    </style>
    <g id="Layer_2">
        <path class="st0" d="M0 0h1180v250H0z"/>
        <path class="st1" d="M35 54.8h150v40H35z"/>
        <path class="st2" d="M78.6 72.1h2v8.6h-2v-.9c-.8.8-1.7 1.1-2.6 1.1-1.2 0-2.2-.4-2.9-1.3-.8-.9-1.2-2-1.2-3.3 0-1.3.4-2.4 1.2-3.2s1.7-1.3 2.9-1.3c1 0 1.9.4 2.7 1.2v-.9zm-4.7 4.3c0 .8.2 1.5.7 2 .5.5 1 .8 1.7.8s1.3-.3 1.8-.8.7-1.2.7-2-.2-1.5-.7-2c-.5-.5-1-.8-1.8-.8-.7 0-1.2.3-1.7.8-.5.6-.7 1.2-.7 2zm9.1-4.3h2v.8c.4-.4.7-.6 1-.8.3-.1.6-.2 1-.2.5 0 1.1.2 1.6.5l-.9 1.8c-.4-.3-.7-.4-1.1-.4-1.1 0-1.6.8-1.6 2.4v4.4h-2v-8.5zm9.5 1.9v6.7h-2V74h-.8v-1.8h.8V69h2v3.1H94V74h-1.5zm2.6-5.4c0-.3.1-.6.4-.9s.6-.4.9-.4c.4 0 .7.1.9.4.3.2.4.5.4.9s-.1.7-.4.9c-.2.3-.5.4-.9.4s-.7-.1-.9-.4-.4-.6-.4-.9zm2.2 3.5v8.6h-2v-8.6h2zm9.2.4v2.6c-.5-.6-.9-.9-1.2-1.1-.4-.2-.8-.3-1.2-.3-.7 0-1.4.3-1.9.8s-.7 1.2-.7 2 .2 1.5.7 2c.5.5 1.1.8 1.8.8.5 0 .9-.1 1.3-.3.4-.2.8-.6 1.2-1.2v2.6c-.8.4-1.6.6-2.4.6-1.3 0-2.4-.4-3.3-1.3-.9-.9-1.3-1.9-1.3-3.2s.5-2.4 1.4-3.2 2-1.3 3.3-1.3c.8-.1 1.5.1 2.3.5zm3.9-6.7v14.8h-2V65.8h2zm10.3 11.1h-6.1c.1.7.3 1.3.7 1.7.4.4.9.6 1.6.6.5 0 .9-.1 1.2-.4.3-.2.7-.7 1.1-1.3l1.7.9c-.3.4-.5.8-.8 1.1s-.6.6-.9.8c-.3.2-.7.3-1.1.4s-.8.1-1.2.1c-1.3 0-2.3-.4-3.1-1.2-.8-.8-1.2-1.9-1.2-3.3s.4-2.4 1.1-3.3c.8-.8 1.8-1.2 3-1.2 1.3 0 2.3.4 3 1.2.7.8 1.1 1.9 1.1 3.3l-.1.6zm-2-1.7c-.3-1.1-.9-1.6-2-1.6-.2 0-.5 0-.7.1l-.6.3c-.2.1-.3.3-.4.5s-.2.4-.3.7h4zm4.5 4.5c0-.3.1-.6.4-.9s.5-.4.9-.4.6.1.9.4.4.5.4.9c0 .3-.1.6-.4.9-.2.2-.5.4-.9.4-.3 0-.6-.1-.9-.4s-.4-.6-.4-.9zm4.9-11.1c0-.3.1-.6.4-.9s.6-.4.9-.4c.4 0 .7.1.9.4.3.2.4.5.4.9s-.1.7-.4.9c-.2.3-.5.4-.9.4s-.7-.1-.9-.4-.4-.6-.4-.9zm2.3 3.5v13.2h-2V72.1h2zm7.5 1.5l-1.6.9c-.3-.5-.6-.8-1-.8-.2 0-.3.1-.5.2s-.2.3-.2.5c0 .3.4.7 1.1 1 1 .5 1.8.9 2.1 1.2s.5.9.5 1.5c0 .8-.3 1.5-.9 2.1-.6.5-1.3.8-2.1.8-1.4 0-2.5-.7-3-2.1l1.7-.9c.2.4.4.7.5.8.2.2.5.3.9.3.7 0 1-.3 1-.9 0-.4-.3-.7-.8-1l-.6-.3-.6-.3c-.6-.3-1-.6-1.2-.8-.3-.4-.4-.8-.4-1.4 0-.7.3-1.4.8-1.8.5-.5 1.2-.7 1.9-.7 1 0 1.8.5 2.4 1.7zm4.9 2.4l-3.1-3.9h2.4l1.9 2.5 1.9-2.5h2.4l-3.2 3.9 3.7 4.6h-2.4l-2.5-3.2-2.6 3.2H139l3.8-4.6z"/>
        <path class="st3" d="M182 57.8v34H38v-34h144m1-1H37v36h146v-36z"/>
        <path class="st1" d="M35 104.8h150v40H35z"/>
        <path class="st2" d="M77 122.1h2v8.6h-2v-.9c-.8.8-1.7 1.1-2.6 1.1-1.2 0-2.2-.4-2.9-1.3-.8-.9-1.2-2-1.2-3.3 0-1.3.4-2.4 1.2-3.2s1.7-1.3 2.9-1.3c1 0 1.9.4 2.7 1.2v-.9zm-4.7 4.3c0 .8.2 1.5.7 2 .5.5 1 .8 1.7.8s1.3-.3 1.8-.8.7-1.2.7-2-.2-1.5-.7-2c-.5-.5-1-.8-1.8-.8-.7 0-1.2.3-1.7.8-.5.6-.7 1.2-.7 2zm9.1-4.3h2v.8c.4-.4.7-.6 1-.8.3-.1.6-.2 1-.2.5 0 1.1.2 1.6.5l-.9 1.8c-.4-.3-.7-.4-1.1-.4-1.1 0-1.6.8-1.6 2.4v4.4h-2v-8.5zm9.5 1.9v6.7h-2V124H88v-1.8h.8V119h2v3.1h1.5v1.8h-1.4zm2.6-5.4c0-.3.1-.6.4-.9s.6-.4.9-.4c.4 0 .7.1.9.4.3.2.4.5.4.9s-.1.7-.4.9c-.2.3-.5.4-.9.4s-.7-.1-.9-.4-.4-.6-.4-.9zm2.2 3.5v8.6h-2v-8.6h2zm9.2.4v2.6c-.5-.6-.9-.9-1.2-1.1-.4-.2-.8-.3-1.2-.3-.7 0-1.4.3-1.9.8s-.7 1.2-.7 2 .2 1.5.7 2c.5.5 1.1.8 1.8.8.5 0 .9-.1 1.3-.3.4-.2.8-.6 1.2-1.2v2.6c-.8.4-1.6.6-2.4.6-1.3 0-2.4-.4-3.3-1.3-.9-.9-1.3-1.9-1.3-3.2s.5-2.4 1.4-3.2 2-1.3 3.3-1.3c.8-.1 1.5.1 2.3.5zm3.9-6.7v14.8h-2v-14.8h2zm10.3 11.1H113c.1.7.3 1.3.7 1.7.4.4.9.6 1.6.6.5 0 .9-.1 1.2-.4.3-.2.7-.7 1.1-1.3l1.7.9c-.3.4-.5.8-.8 1.1s-.6.6-.9.8c-.3.2-.7.3-1.1.4s-.8.1-1.2.1c-1.3 0-2.3-.4-3.1-1.2-.8-.8-1.2-1.9-1.2-3.3s.4-2.4 1.1-3.3c.8-.8 1.8-1.2 3-1.2 1.3 0 2.3.4 3 1.2.7.8 1.1 1.9 1.1 3.3l-.1.6zm-2-1.7c-.3-1.1-.9-1.6-2-1.6-.2 0-.5 0-.7.1l-.6.3c-.2.1-.3.3-.4.5s-.2.4-.3.7h4zm4.5 4.5c0-.3.1-.6.4-.9s.5-.4.9-.4.6.1.9.4.4.5.4.9c0 .3-.1.6-.4.9-.2.2-.5.4-.9.4-.3 0-.6-.1-.9-.4s-.4-.6-.4-.9zm5.2-7.6h2v.8c.4-.4.7-.7 1-.8.3-.1.6-.2 1.1-.2 1 0 1.7.4 2.3 1.3.6-.8 1.5-1.3 2.5-1.3 1.9 0 2.9 1.2 2.9 3.5v5.3h-2v-4.8c0-.8-.1-1.4-.3-1.7-.2-.3-.5-.5-1-.5s-.9.2-1.2.6-.4 1.1-.4 2v4.4h-2V126c0-1.5-.4-2.3-1.3-2.3-.6 0-1 .2-1.2.6s-.4 1.1-.4 2v4.4h-2v-8.6zm20.6-6.3h2v14.8h-2v-.9c-.8.8-1.7 1.1-2.6 1.1-1.2 0-2.1-.4-2.9-1.3-.8-.9-1.2-2-1.2-3.3 0-1.3.4-2.3 1.2-3.2.8-.9 1.7-1.3 2.9-1.3 1 0 1.9.4 2.7 1.2v-7.1zm-4.7 10.6c0 .8.2 1.5.7 2 .5.5 1 .8 1.7.8s1.3-.3 1.8-.8.7-1.2.7-2-.2-1.5-.7-2c-.5-.5-1-.8-1.8-.8-.7 0-1.2.3-1.7.8-.5.6-.7 1.2-.7 2z"/>
        <path class="st3" d="M182 107.8v34H38v-34h144m1-1H37v36h146v-36z"/>
        <path class="st1" d="M35 155.2h150v40H35z"/>
        <path class="st2" d="M67.3 172.6h2v.8c.4-.4.7-.6 1-.8.3-.1.6-.2 1-.2.5 0 1.1.2 1.6.5l-.9 1.8c-.4-.3-.7-.4-1.1-.4-1.1 0-1.6.8-1.6 2.4v4.4h-2v-8.5zm14.4 4.8h-6.1c.1.7.3 1.3.7 1.7.4.4.9.6 1.6.6.5 0 .9-.1 1.2-.4.3-.2.7-.7 1.1-1.3l1.7.9c-.3.4-.5.8-.8 1.1s-.6.6-.9.8c-.3.2-.7.3-1.1.4s-.8.1-1.2.1c-1.3 0-2.3-.4-3.1-1.2-.8-.8-1.2-1.9-1.2-3.3s.4-2.4 1.1-3.3c.8-.8 1.8-1.2 3-1.2 1.3 0 2.3.4 3 1.2.7.8 1.1 1.9 1.1 3.3l-.1.6zm-2-1.7c-.3-1.1-.9-1.6-2-1.6-.2 0-.5 0-.7.1l-.6.3c-.2.1-.3.3-.4.5s-.2.4-.3.7h4zm10.8-2.7v2.6c-.5-.6-.9-.9-1.2-1.1-.4-.2-.8-.3-1.2-.3-.7 0-1.4.3-1.9.8s-.7 1.2-.7 2 .2 1.5.7 2c.5.5 1.1.8 1.8.8.5 0 .9-.1 1.3-.3.4-.2.8-.6 1.2-1.2v2.6c-.8.4-1.6.6-2.4.6-1.3 0-2.4-.4-3.3-1.3-.9-.9-1.3-1.9-1.3-3.2s.5-2.4 1.4-3.2 2-1.3 3.3-1.3c.8-.1 1.6.1 2.3.5zm9.7 4.4h-6.1c.1.7.3 1.3.7 1.7.4.4.9.6 1.6.6.5 0 .9-.1 1.2-.4.3-.2.7-.7 1.1-1.3l1.7.9c-.3.4-.5.8-.8 1.1s-.6.6-.9.8c-.3.2-.7.3-1.1.4s-.8.1-1.2.1c-1.3 0-2.3-.4-3.1-1.2-.8-.8-1.2-1.9-1.2-3.3s.4-2.4 1.1-3.3c.8-.8 1.8-1.2 3-1.2 1.3 0 2.3.4 3 1.2.7.8 1.1 1.9 1.1 3.3l-.1.6zm-2-1.7c-.3-1.1-.9-1.6-2-1.6-.2 0-.5 0-.7.1l-.6.3c-.2.1-.3.3-.4.5s-.2.4-.3.7h4zm4.2-3.1h2v.8c.7-.7 1.5-1 2.3-1 1 0 1.8.3 2.3.9.5.5.7 1.4.7 2.6v5.2h-2v-4.8c0-.8-.1-1.4-.4-1.7-.2-.3-.6-.5-1.2-.5-.7 0-1.1.2-1.4.7-.3.4-.4 1.2-.4 2.2v4.1h-2v-8.5zm11.9 1.9v6.7h-2v-6.7h-.8v-1.8h.8v-3.1h2v3.1h1.5v1.8h-1.5zm3.2 5.7c0-.3.1-.6.4-.9s.5-.4.9-.4.6.1.9.4.4.5.4.9c0 .3-.1.6-.4.9-.2.2-.5.4-.9.4-.3 0-.6-.1-.9-.4s-.4-.6-.4-.9zm4.9-11.1c0-.3.1-.6.4-.9s.6-.4.9-.4c.4 0 .7.1.9.4.3.2.4.5.4.9s-.1.7-.4.9c-.2.3-.5.4-.9.4s-.7-.1-.9-.4-.4-.6-.4-.9zm2.3 3.5v13.2h-2v-13.2h2zm7.5 1.5l-1.6.9c-.3-.5-.6-.8-1-.8-.2 0-.3.1-.5.2s-.2.3-.2.5c0 .3.4.7 1.1 1 1 .5 1.8.9 2.1 1.2s.5.9.5 1.5c0 .8-.3 1.5-.9 2.1-.6.5-1.3.8-2.1.8-1.4 0-2.5-.7-3-2.1l1.7-.8c.2.4.4.7.5.8.2.2.5.3.9.3.7 0 1-.3 1-.9 0-.4-.3-.7-.8-1l-.6-.3-.6-.3c-.6-.3-1-.6-1.2-.8-.3-.4-.4-.8-.4-1.4 0-.7.3-1.4.8-1.8.5-.5 1.2-.7 1.9-.7 1-.1 1.9.4 2.4 1.6zm1.9 2.7c0-1.2.4-2.3 1.3-3.2s2-1.3 3.2-1.3c1.3 0 2.4.4 3.3 1.3.9.9 1.3 1.9 1.3 3.2 0 1.3-.4 2.4-1.3 3.2-.9.9-2 1.3-3.3 1.3-1.3 0-2.4-.4-3.2-1.3-.8-.8-1.3-1.9-1.3-3.2zm2 .1c0 .9.2 1.5.7 2 .5.5 1.1.8 1.9.8.8 0 1.4-.2 1.9-.7s.7-1.2.7-2-.2-1.5-.7-2c-.5-.5-1.1-.8-1.9-.8-.8 0-1.4.3-1.8.8s-.8 1.1-.8 1.9zm9.2-4.3h2v.8c.7-.7 1.5-1 2.3-1 1 0 1.8.3 2.3.9.5.5.7 1.4.7 2.6v5.2h-2v-4.8c0-.8-.1-1.4-.4-1.7-.2-.3-.6-.5-1.2-.5-.7 0-1.1.2-1.4.7-.3.4-.4 1.2-.4 2.2v4.1h-2v-8.5z"/>
        <path class="st3" d="M182 158.2v34H38v-34h144m1-1H37v36h146v-36z"/>
        <circle class="st4" cx="355" cy="125" r="80"/>
        <path class="st3" d="M333.4 124.4l5.6 7.7h-3.3l-5.2-7.4h-.5v7.4h-2.7V114h3.2c2.4 0 4.1.4 5.2 1.3 1.2 1 1.8 2.3 1.8 4 0 1.3-.4 2.4-1.1 3.3s-1.8 1.5-3 1.8zm-3.4-2.1h.9c2.6 0 3.9-1 3.9-3 0-1.9-1.3-2.8-3.8-2.8h-1v5.8zm21.3 4.7h-8.2c.1.9.4 1.7.9 2.2.5.5 1.2.8 2.1.8.7 0 1.2-.2 1.6-.5.4-.3.9-.9 1.4-1.7l2.2 1.2c-.3.6-.7 1.1-1.1 1.5s-.8.8-1.2 1-.9.5-1.4.6-1.1.2-1.7.2c-1.7 0-3.1-.5-4.1-1.6-1-1.1-1.5-2.6-1.5-4.4 0-1.8.5-3.3 1.5-4.4 1-1.1 2.3-1.7 4-1.7 1.7 0 3 .5 4 1.6s1.5 2.5 1.5 4.4v.8zm-2.8-2.1c-.4-1.4-1.3-2.1-2.7-2.1-.3 0-.6 0-.9.1s-.5.2-.8.4-.4.4-.6.7-.3.6-.4.9h5.4zm14.1-4.2h2.6v11.4h-2.6v-1.2c-1.1 1-2.3 1.5-3.5 1.5-1.6 0-2.9-.6-3.9-1.7-1-1.2-1.5-2.6-1.5-4.4 0-1.7.5-3.1 1.5-4.3s2.3-1.7 3.8-1.7c1.3 0 2.5.5 3.6 1.6v-1.2zm-6.3 5.7c0 1.1.3 2 .9 2.7.6.7 1.4 1 2.3 1 1 0 1.8-.3 2.4-1 .6-.7.9-1.6.9-2.6s-.3-2-.9-2.6c-.6-.7-1.4-1-2.3-1-.9 0-1.7.3-2.3 1-.7.6-1 1.4-1 2.5zm21.1-5.2v3.5c-.6-.7-1.1-1.2-1.6-1.5-.5-.3-1-.4-1.7-.4-1 0-1.8.3-2.5 1s-1 1.6-1 2.6c0 1.1.3 1.9.9 2.6.6.7 1.5 1 2.4 1 .6 0 1.2-.1 1.7-.4.5-.3 1-.8 1.7-1.5v3.5c-1.1.6-2.1.8-3.2.8-1.8 0-3.2-.6-4.4-1.7-1.2-1.1-1.8-2.6-1.8-4.3s.6-3.1 1.8-4.3 2.7-1.8 4.4-1.8c1.2.1 2.3.3 3.3.9zm5.3 2v9H380v-9h-1.1v-2.5h1.1v-4.2h2.6v4.2h2.1v2.5h-2z"/>
        <path class="st1" d="M355 50c41.4 0 75 33.6 75 75s-33.6 75-75 75-75-33.6-75-75 33.6-75 75-75m0-2c-42.5 0-77 34.5-77 77s34.5 77 77 77 77-34.5 77-77-34.5-77-77-77zm170 2h120v30H525z"/>
        <path class="st2" d="M548.6 58.6h1.5V64c.5-.5 1.2-.7 1.8-.7.8 0 1.4.2 1.8.7.4.4.6 1.1.6 2v4.1h-1.5v-3.9c0-.5-.1-.9-.3-1.2-.2-.2-.5-.4-.9-.4-.5 0-.9.2-1.1.5-.2.3-.3.9-.3 1.7V70h-1.5V58.6zm13.7 8.6h-4.8c0 .5.2 1 .5 1.3.3.3.7.5 1.2.5.4 0 .7-.1 1-.3.2-.2.5-.5.8-1l1.3.7-.6.9c-.2.2-.5.4-.7.6-.3.2-.5.3-.8.3-.3.1-.6.1-1 .1-1 0-1.8-.3-2.4-1-.6-.6-.9-1.5-.9-2.6s.3-1.9.9-2.6c.6-.6 1.4-1 2.3-1 1 0 1.8.3 2.3.9.6.6.8 1.5.8 2.6l.1.6zm-1.6-1.3c-.2-.8-.7-1.2-1.6-1.2-.2 0-.4 0-.5.1-.2.1-.3.1-.4.2-.1.1-.2.2-.3.4s-.2.3-.2.5h3zm8.2-2.4h1.5v6.7h-1.5v-.7c-.6.6-1.3.9-2 .9-.9 0-1.7-.3-2.3-1-.6-.7-.9-1.5-.9-2.5s.3-1.8.9-2.5c.6-.7 1.3-1 2.2-1 .8 0 1.5.3 2.1 1v-.9zm-3.7 3.3c0 .6.2 1.2.5 1.6.4.4.8.6 1.3.6.6 0 1-.2 1.4-.6.4-.4.5-.9.5-1.5s-.2-1.1-.5-1.5c-.4-.4-.8-.6-1.4-.6-.5 0-1 .2-1.3.6-.3.3-.5.8-.5 1.4zm12.1-8.2h1.5v11.5h-1.5v-.7c-.6.6-1.3.9-2.1.9-.9 0-1.7-.3-2.3-1-.6-.7-.9-1.5-.9-2.5s.3-1.8.9-2.5c.6-.7 1.3-1 2.2-1 .8 0 1.5.3 2.1 1v-5.7zm-3.7 8.2c0 .6.2 1.2.5 1.6.4.4.8.6 1.3.6.6 0 1-.2 1.4-.6.4-.4.5-.9.5-1.5s-.2-1.1-.5-1.5c-.4-.4-.8-.6-1.4-.6-.5 0-1 .2-1.3.6-.3.3-.5.8-.5 1.4zm13.2.4H582c0 .5.2 1 .5 1.3.3.3.7.5 1.2.5.4 0 .7-.1 1-.3.2-.2.5-.5.8-1l1.3.7-.6.9c-.2.2-.5.4-.7.6-.3.2-.5.3-.8.3-.3.1-.6.1-1 .1-1 0-1.8-.3-2.4-1-.6-.6-.9-1.5-.9-2.6s.3-1.9.9-2.6c.6-.6 1.4-1 2.3-1 1 0 1.8.3 2.3.9.6.6.8 1.5.8 2.6l.1.6zm-1.6-1.3c-.2-.8-.7-1.2-1.6-1.2-.2 0-.4 0-.5.1-.2.1-.3.1-.4.2-.1.1-.2.2-.3.4s-.2.3-.2.5h3zm3.3-2.4h1.5v.6c.3-.3.5-.5.8-.6.2-.1.5-.2.8-.2.4 0 .8.1 1.3.4l-.7 1.4c-.3-.2-.6-.3-.9-.3-.8 0-1.3.6-1.3 1.9v3.5h-1.5v-6.7zm4.7 5.9c0-.3.1-.5.3-.7.2-.2.4-.3.7-.3s.5.1.7.3c.2.2.3.4.3.7 0 .3-.1.5-.3.7-.2.2-.4.3-.7.3-.3 0-.5-.1-.7-.3-.2-.2-.3-.4-.3-.7zm4.1-10.8h1.5V64c.5-.5 1.2-.7 1.8-.7.8 0 1.4.2 1.8.7.4.4.6 1.1.6 2v4.1h-1.5v-3.9c0-.5-.1-.9-.3-1.2-.2-.2-.5-.4-.9-.4-.5 0-.9.2-1.1.5-.2.3-.3.9-.3 1.7V70h-1.5V58.6zm9.3 6.3v5.2H605v-5.2h-.7v-1.4h.7V61h1.5v2.4h1.2v1.4h-1.1zm2.2-1.4h1.5v.6c.3-.3.5-.5.8-.6.2-.1.5-.2.8-.2.8 0 1.3.3 1.8 1 .5-.7 1.1-1 2-1 1.5 0 2.2.9 2.2 2.7v4.1h-1.5v-3.7c0-.6-.1-1.1-.2-1.4-.2-.3-.4-.4-.8-.4s-.7.2-.9.5c-.2.3-.3.8-.3 1.5V70h-1.5v-3.7c0-1.2-.3-1.8-1-1.8-.4 0-.7.2-.9.5s-.3.8-.3 1.5v3.4H609v-6.4zm12.6-4.9v11.5h-1.5V58.6h1.5z"/>
        <path class="st3" d="M642 53v24H528V53h114m1-1H527v26h116V52z"/>
        <path class="st1" d="M525 90h120v30H525z"/>
        <path class="st2" d="M557.8 100.7c0-.3.1-.5.3-.7.2-.2.4-.3.7-.3.3 0 .5.1.7.3.2.2.3.4.3.7s-.1.5-.3.7c-.2.2-.4.3-.7.3-.3 0-.5-.1-.7-.3-.2-.2-.3-.4-.3-.7zm1.8 2.8v6.7H558v-6.7h1.6zm1.9 0h1.5v.6c.5-.5 1.1-.8 1.8-.8.8 0 1.4.2 1.8.7.4.4.6 1.1.6 2v4.1h-1.5v-3.7c0-.7-.1-1.1-.3-1.4-.2-.3-.5-.4-1-.4s-.9.2-1.1.5c-.2.3-.3.9-.3 1.7v3.2h-1.5v-6.5zm9.2-4.9v11.5h-1.5V98.6h1.5zm1.7 2.1c0-.3.1-.5.3-.7.2-.2.4-.3.7-.3.3 0 .5.1.7.3.2.2.3.4.3.7s-.1.5-.3.7c-.2.2-.4.3-.7.3-.3 0-.5-.1-.7-.3-.2-.2-.3-.4-.3-.7zm1.8 2.8v6.7h-1.5v-6.7h1.5zm2 0h1.5v.6c.5-.5 1.1-.8 1.8-.8.8 0 1.4.2 1.8.7.4.4.6 1.1.6 2v4.1h-1.5v-3.7c0-.7-.1-1.1-.3-1.4-.2-.3-.5-.4-1-.4s-.9.2-1.1.5c-.2.3-.3.9-.3 1.7v3.2h-1.5v-6.5zm13.7 3.7h-4.8c0 .5.2 1 .5 1.3.3.3.7.5 1.2.5.4 0 .7-.1 1-.3.2-.2.5-.5.8-1l1.3.7-.6.9c-.2.2-.5.4-.7.6-.3.2-.5.3-.8.3-.3.1-.6.1-1 .1-1 0-1.8-.3-2.4-1-.6-.6-.9-1.5-.9-2.6s.3-1.9.9-2.6c.6-.6 1.4-1 2.3-1 1 0 1.8.3 2.3.9.6.6.8 1.5.8 2.6l.1.6zm-1.6-1.3c-.2-.8-.7-1.2-1.6-1.2-.2 0-.4 0-.5.1-.2.1-.3.1-.4.2-.1.1-.2.2-.3.4s-.2.3-.2.5h3zm3.5 3.5c0-.3.1-.5.3-.7.2-.2.4-.3.7-.3s.5.1.7.3c.2.2.3.4.3.7 0 .3-.1.5-.3.7-.2.2-.4.3-.7.3-.3 0-.5-.1-.7-.3-.2-.2-.3-.4-.3-.7zm9.3-5.6v2l-.9-.9c-.3-.2-.6-.2-1-.2-.6 0-1.1.2-1.4.6s-.6.9-.6 1.5.2 1.1.6 1.5c.4.4.8.6 1.4.6.4 0 .7-.1 1-.2.3-.2.6-.5 1-.9v2c-.6.3-1.2.5-1.9.5-1 0-1.9-.3-2.6-1-.7-.7-1-1.5-1-2.5s.4-1.8 1.1-2.5c.7-.7 1.6-1 2.6-1 .5 0 1.1.2 1.7.5zm5.3.8l-1.3.7c-.2-.4-.4-.6-.7-.6-.1 0-.3 0-.4.1-.1.1-.2.2-.2.4 0 .3.3.5.9.8.8.4 1.4.7 1.6 1 .3.3.4.7.4 1.2 0 .6-.2 1.2-.7 1.6-.5.4-1 .6-1.7.6-1.1 0-1.9-.5-2.4-1.6l1.3-.6c.2.3.3.5.4.6.2.2.4.3.7.3.5 0 .8-.2.8-.7 0-.3-.2-.5-.6-.8-.2-.1-.3-.2-.5-.2-.2-.1-.3-.1-.5-.2-.4-.2-.8-.4-.9-.7-.2-.3-.3-.6-.3-1.1 0-.6.2-1.1.6-1.4.4-.4.9-.6 1.5-.6 1-.1 1.6.3 2 1.2zm5.7 0l-1.3.7c-.2-.4-.4-.6-.7-.6-.1 0-.3 0-.4.1-.1.1-.2.2-.2.4 0 .3.3.5.9.8.8.4 1.4.7 1.6 1 .3.3.4.7.4 1.2 0 .6-.2 1.2-.7 1.6-.5.4-1 .6-1.7.6-1.1 0-1.9-.5-2.4-1.6l1.3-.6c.2.3.3.5.4.6.2.2.4.3.7.3.5 0 .8-.2.8-.7 0-.3-.2-.5-.6-.8-.2-.1-.3-.2-.5-.2-.2-.1-.3-.1-.5-.2-.4-.2-.8-.4-.9-.7-.2-.3-.3-.6-.3-1.1 0-.6.2-1.1.6-1.4.4-.4.9-.6 1.5-.6 1-.1 1.6.3 2 1.2z"/>
        <path class="st3" d="M642 93v24H528V93h114m1-1H527v26h116V92z"/>
        <path class="st1" d="M525 170h120v30H525z"/>
        <path class="st2" d="M553.7 184.9v5.2h-1.5v-5.2h-.5v-1.4h.5v-2.6c0-.8.1-1.4.4-1.8.4-.5 1-.7 1.8-.7.3 0 .6.1 1 .2v1.6l-.2-.1c-.3-.2-.6-.3-.8-.3-.3 0-.5.1-.6.3-.1.2-.1.6-.1 1.1v2.2h1.7v1.4h-1.7zm2.4 1.9c0-1 .3-1.8 1-2.5s1.5-1 2.5-1 1.8.3 2.5 1 1 1.5 1 2.5-.3 1.8-1 2.5-1.5 1-2.5 1-1.8-.3-2.5-1-1-1.5-1-2.5zm1.6 0c0 .7.2 1.2.5 1.6.4.4.8.6 1.4.6.6 0 1.1-.2 1.4-.6.4-.4.5-.9.5-1.6s-.2-1.2-.5-1.6c-.4-.4-.8-.6-1.4-.6-.6 0-1.1.2-1.4.6-.4.5-.5 1-.5 1.6zm6.8 0c0-1 .3-1.8 1-2.5s1.5-1 2.5-1 1.8.3 2.5 1 1 1.5 1 2.5-.3 1.8-1 2.5-1.5 1-2.5 1-1.8-.3-2.5-1-1-1.5-1-2.5zm1.6 0c0 .7.2 1.2.5 1.6.4.4.8.6 1.4.6.6 0 1.1-.2 1.4-.6.4-.4.5-.9.5-1.6s-.2-1.2-.5-1.6c-.4-.4-.8-.6-1.4-.6-.6 0-1.1.2-1.4.6-.4.5-.5 1-.5 1.6zm8.8-1.9v5.2h-1.5v-5.2h-.7v-1.4h.7V181h1.5v2.4h1.2v1.4h-1.2zm8.4 2.3h-4.8c0 .5.2 1 .5 1.3.3.3.7.5 1.2.5.4 0 .7-.1 1-.3.2-.2.5-.5.8-1l1.3.7-.6.9c-.2.2-.5.4-.7.6-.3.2-.5.3-.8.3-.3.1-.6.1-1 .1-1 0-1.8-.3-2.4-1-.6-.6-.9-1.5-.9-2.6s.3-1.9.9-2.6c.6-.6 1.4-1 2.3-1 1 0 1.8.3 2.3.9.6.6.8 1.5.8 2.6l.1.6zm-1.6-1.3c-.2-.8-.7-1.2-1.6-1.2-.2 0-.4 0-.5.1-.2.1-.3.1-.4.2-.1.1-.2.2-.3.4s-.2.3-.2.5h3zm3.3-2.4h1.5v.6c.3-.3.5-.5.8-.6.2-.1.5-.2.8-.2.4 0 .8.1 1.3.4l-.7 1.4c-.3-.2-.6-.3-.9-.3-.8 0-1.3.6-1.3 1.9v3.5H585v-6.7zm4.7 5.9c0-.3.1-.5.3-.7.2-.2.4-.3.7-.3s.5.1.7.3c.2.2.3.4.3.7 0 .3-.1.5-.3.7-.2.2-.4.3-.7.3-.3 0-.5-.1-.7-.3-.2-.2-.3-.4-.3-.7zm4.1-10.8h1.5v5.4c.5-.5 1.2-.7 1.8-.7.8 0 1.4.2 1.8.7.4.4.6 1.1.6 2v4.1H598v-3.9c0-.5-.1-.9-.3-1.2-.2-.2-.5-.4-.9-.4-.5 0-.9.2-1.1.5-.2.3-.3.9-.3 1.7v3.2h-1.5v-11.4zm9.3 6.3v5.2h-1.5v-5.2h-.7v-1.4h.7V181h1.5v2.4h1.2v1.4h-1.2zm2.2-1.4h1.5v.6c.3-.3.5-.5.8-.6.2-.1.5-.2.8-.2.8 0 1.3.3 1.8 1 .5-.7 1.1-1 2-1 1.5 0 2.2.9 2.2 2.7v4.1h-1.5v-3.7c0-.6-.1-1.1-.2-1.4-.2-.3-.4-.4-.8-.4s-.7.2-.9.5c-.2.3-.3.8-.3 1.5v3.4h-1.5v-3.7c0-1.2-.3-1.8-1-1.8-.4 0-.7.2-.9.5s-.3.8-.3 1.5v3.4h-1.5v-6.4zm12.6-4.9v11.5h-1.5v-11.5h1.5z"/>
        <path class="st3" d="M642 173v24H528v-24h114m1-1H527v26h116v-26z"/>
        <path class="st4" d="M525 130h120v30H525z"/>
        <path class="st3" d="M556.3 138.6v5.7c.6-.6 1.3-1 2.1-1 .9 0 1.6.3 2.2 1 .6.7.9 1.5.9 2.5s-.3 1.9-.9 2.5c-.6.7-1.4 1-2.3 1-.8 0-1.5-.3-2.1-.9v.7h-1.5v-11.5h1.6zm3.7 8.3c0-.6-.2-1.2-.5-1.6-.4-.4-.8-.6-1.3-.6-.6 0-1 .2-1.4.6-.4.4-.5.9-.5 1.5s.2 1.2.5 1.6c.3.4.8.6 1.4.6.5 0 1-.2 1.3-.6.3-.4.5-.9.5-1.5zm2.9-.1c0-1 .3-1.8 1-2.5s1.5-1 2.5-1 1.8.3 2.5 1 1 1.5 1 2.5-.3 1.8-1 2.5-1.5 1-2.5 1-1.8-.3-2.5-1-1-1.5-1-2.5zm1.5 0c0 .7.2 1.2.5 1.6.4.4.8.6 1.4.6.6 0 1.1-.2 1.4-.6.4-.4.5-.9.5-1.6s-.2-1.2-.5-1.6c-.4-.4-.8-.6-1.4-.6-.6 0-1.1.2-1.4.6-.3.5-.5 1-.5 1.6zm12.1-8.2h1.5v11.5h-1.5v-.7c-.6.6-1.3.9-2.1.9-.9 0-1.7-.3-2.3-1-.6-.7-.9-1.5-.9-2.5s.3-1.8.9-2.5c.6-.7 1.3-1 2.2-1 .8 0 1.5.3 2.1 1v-5.7zm-3.6 8.2c0 .6.2 1.2.5 1.6.4.4.8.6 1.3.6.6 0 1-.2 1.4-.6.4-.4.5-.9.5-1.5s-.2-1.1-.5-1.5c-.4-.4-.8-.6-1.4-.6-.5 0-1 .2-1.3.6-.4.3-.5.8-.5 1.4zm9.2 2.1l-3-5.4h1.8l2 3.8 1.9-3.8h1.7l-5.3 10.3h-1.8l2.7-4.9zm4.9.5c0-.3.1-.5.3-.7.2-.2.4-.3.7-.3s.5.1.7.3c.2.2.3.4.3.7 0 .3-.1.5-.3.7-.2.2-.4.3-.7.3-.3 0-.5-.1-.7-.3-.2-.2-.3-.4-.3-.7zm4.1-10.8h1.5v5.4c.5-.5 1.2-.7 1.8-.7.8 0 1.4.2 1.8.7.4.4.6 1.1.6 2v4.1h-1.5v-3.9c0-.5-.1-.9-.3-1.2-.2-.2-.5-.4-.9-.4-.5 0-.9.2-1.1.5-.2.3-.3.9-.3 1.7v3.2h-1.5v-11.4zm9.3 6.3v5.2h-1.5v-5.2h-.7v-1.4h.7V141h1.5v2.4h1.2v1.4h-1.2zm2.2-1.4h1.5v.6c.3-.3.5-.5.8-.6.2-.1.5-.2.8-.2.8 0 1.3.3 1.8 1 .5-.7 1.1-1 2-1 1.5 0 2.2.9 2.2 2.7v4.1h-1.5v-3.7c0-.6-.1-1.1-.2-1.4-.2-.3-.4-.4-.8-.4s-.7.2-.9.5c-.2.3-.3.8-.3 1.5v3.4h-1.5v-3.7c0-1.2-.3-1.8-1-1.8-.4 0-.7.2-.9.5s-.3.8-.3 1.5v3.4h-1.5v-6.4zm12.6-4.9v11.5h-1.5v-11.5h1.5z"/>
        <path class="st1" d="M642 133v24H528v-24h114m1-1H527v26h116v-26z"/>
        <circle class="st5" cx="815" cy="125" r="80"/>
        <path class="st0" d="M766.5 122.9h6.5V117h2.3v15.1H773v-7h-6.5v7h-2.3V117h2.3v5.9zm18.9-.3h2.2v9.5h-2.2v-1c-.9.8-1.9 1.3-2.9 1.3-1.3 0-2.4-.5-3.3-1.4-.9-1-1.3-2.2-1.3-3.6s.4-2.6 1.3-3.6 1.9-1.4 3.2-1.4c1.1 0 2.1.5 3 1.4v-1.2zm-5.2 4.7c0 .9.2 1.7.7 2.2.5.6 1.1.9 1.9.9.8 0 1.5-.3 2-.8.5-.6.8-1.3.8-2.2s-.3-1.6-.8-2.2c-.5-.6-1.2-.8-2-.8s-1.4.3-1.9.9c-.4.5-.7 1.2-.7 2zm10.2-4.7h2.2v.9c.8-.8 1.6-1.1 2.6-1.1 1.1 0 2 .3 2.6 1 .5.6.8 1.6.8 2.9v5.8h-2.2v-5.3c0-.9-.1-1.6-.4-1.9-.3-.4-.7-.5-1.4-.5s-1.2.2-1.6.7c-.3.5-.4 1.3-.4 2.5v4.6h-2.2v-9.6zm18-7h2.2v16.5h-2.2v-1c-.9.8-1.8 1.3-2.9 1.3-1.3 0-2.4-.5-3.2-1.4-.9-1-1.3-2.2-1.3-3.6s.4-2.6 1.3-3.6c.8-1 1.9-1.4 3.2-1.4 1.1 0 2.1.5 3 1.4v-8.2zm-5.2 11.7c0 .9.2 1.7.7 2.2.5.6 1.1.9 1.9.9.8 0 1.5-.3 2-.8.5-.6.8-1.3.8-2.2s-.3-1.6-.8-2.2c-.5-.6-1.2-.8-2-.8s-1.4.3-1.9.9c-.5.5-.7 1.2-.7 2zm12.4-11.7v16.5h-2.2v-16.5h2.2zm11.4 12.3h-6.8c.1.8.3 1.4.8 1.9.4.5 1 .7 1.7.7.5 0 1-.1 1.4-.4.4-.3.8-.7 1.2-1.4l1.9 1c-.3.5-.6.9-.9 1.3s-.7.6-1 .9-.8.4-1.2.5-.9.2-1.4.2c-1.4 0-2.6-.5-3.4-1.4-.9-.9-1.3-2.1-1.3-3.7 0-1.5.4-2.7 1.2-3.7.8-.9 2-1.4 3.3-1.4 1.4 0 2.5.4 3.3 1.3.8.9 1.2 2.1 1.2 3.7v.5zm-2.2-1.8c-.3-1.2-1-1.8-2.2-1.8-.3 0-.5 0-.8.1s-.4.2-.6.4-.4.3-.5.6-.2.5-.3.7h4.4zm6.8-10.5v8.1c.9-.9 1.9-1.4 3-1.4 1.3 0 2.4.5 3.2 1.4.9 1 1.3 2.1 1.3 3.6s-.4 2.7-1.3 3.6c-.9 1-1.9 1.4-3.2 1.4-1.1 0-2.1-.4-2.9-1.3v1h-2.2v-16.5h2.1zm5.3 11.8c0-.9-.2-1.7-.7-2.2-.5-.6-1.1-.9-1.9-.9-.8 0-1.5.3-2 .8-.5.6-.8 1.3-.8 2.2 0 .9.2 1.7.7 2.2.5.6 1.1.8 2 .8.8 0 1.4-.3 1.9-.8s.8-1.2.8-2.1zm11.5-4.8h2.2v9.5h-2.2v-1c-.9.8-1.9 1.3-2.9 1.3-1.3 0-2.4-.5-3.3-1.4-.9-1-1.3-2.2-1.3-3.6s.4-2.6 1.3-3.6 1.9-1.4 3.2-1.4c1.1 0 2.1.5 3 1.4v-1.2zm-5.2 4.7c0 .9.2 1.7.7 2.2.5.6 1.1.9 1.9.9.8 0 1.5-.3 2-.8.5-.6.8-1.3.8-2.2s-.3-1.6-.8-2.2c-.5-.6-1.2-.8-2-.8s-1.4.3-1.9.9c-.4.5-.7 1.2-.7 2zm10.2-4.7h2.2v.8c.4-.4.8-.7 1.1-.9.3-.2.7-.2 1.1-.2.6 0 1.2.2 1.8.6l-1 2c-.4-.3-.8-.4-1.2-.4-1.2 0-1.8.9-1.8 2.7v4.9h-2.2v-9.5zm13 1.6l-1.8 1c-.3-.6-.6-.9-1.1-.9-.2 0-.4.1-.5.2s-.2.3-.2.5c0 .4.4.7 1.3 1.1 1.2.5 2 1 2.4 1.4s.6 1 .6 1.7c0 .9-.3 1.7-1 2.3-.7.6-1.5.9-2.4.9-1.6 0-2.7-.8-3.4-2.3l1.9-.9c.3.5.5.7.6.9.3.2.6.4 1 .4.7 0 1.1-.3 1.1-1 0-.4-.3-.8-.9-1.1-.2-.1-.4-.2-.7-.3s-.4-.2-.7-.3c-.6-.3-1.1-.6-1.3-.9-.3-.4-.5-.9-.5-1.5 0-.8.3-1.5.8-2.1.6-.5 1.3-.8 2.1-.8 1.2-.2 2.1.5 2.7 1.7z"/>
        <path class="st3" d="M815 50c41.4 0 75 33.6 75 75s-33.6 75-75 75-75-33.6-75-75 33.6-75 75-75m0-2c-42.5 0-77 34.5-77 77s34.5 77 77 77 77-34.5 77-77-34.5-77-77-77z"/>
        <path class="st4" d="M243.6 133.5l-1.3.1c.8 1.4-1.1 6.3-5.1 5.6.5 2.7-1.8 4.3-4.3 3.6-2.2-.6-3.5-.8-7.4-.1-4.8.9-10.4 2.4-16.1-1-.5-.3-1.1 0-1.2.3-.3.6-.1 2.5-1.6 2.5h-5.8c-2.1 0-3.7-3-3.7-12.7 0-10 .1-14 4.3-14h5.2c1.3 0 1.5.9 1.7 1.5.1.3.6.5.9.3.5-.2 5.7-2.5 10.1-2.9 4.1-.4 5.7-1.7 8.5-1.3 3.3.5 13.9.2 17.1.1 3.1 0 8.1 1 14.7.8 6.3-.1 6.4 7.2.7 6.9-4.5-.3-4.7.3-6.2.1-2.7-.3-5.7 0-7.9.1-1 .1-2-.2-4.9.1 1.6.4 1.6.8 3.9 1.8 3.3 1.7 1.4 8-1.6 8.2z"/>
        <path class="st3" d="M205.3 130.9c-.1 4 .7 10.9.9 11.6.2.6-.2 1-1.1.9-.6-.1-3.7 0-3.7 0-1.4 0-3-1.4-3-12.1.1-11 .5-12.4 3.8-12.4l4 .1c.2 0 .4.2.6.4.2.5-1.2 1.4-1.5 11.5z"/>
        <path class="st3" d="M214.7 132c-.2.2-.2.5-.2.6.4.7 1.2.2 1.8.1.5 0 3.3-.5 4.4.2 1 .7 3.1 2 3.8 4.8.1.5 1 2.1 2.3 2.5.9.3.8 1.3 0 1.4-2.2.2-2.8 1.1-9.6 1.1-5.4-.3-10.4-1.3-10.7-8.5-.1-3.9.1-9.4.6-11.4.6-2 2.2-2 3.7-2.7 6-2.6 10-2.4 13.3-3.1 1.3-.3 2.3-.8 4 .4 3.5 2.5 7.8 3.3 8.9 4.1.7.5.9.7 1 1 .2.4.9.5 1.6 1 .4.3.6.4 1 .6-.6.8-1.1-.1-2 1.6-.2.4 0 1 .1 1.3.4.7 1.9.8 2.4.9l1.5.3c1.4.3 1.8-1.1 1.8-.6.3 2.5-3.1 2-4.2 1.8-1.1-.1-2-.6-3.1-.9-.5-.4-3-.4-3-2.2 0-.3 0-.9-.8-.6-.6.2-3.5.2-3.9-.6-.2-.4-.4-.6-.8-.8-.4-.2-.6.1-.6.5.1.6 0 1.4-.8 1.6-.7.2-1.1.2-1.6-.1-.6-.3-1.6-1-2.1-.9-.4.1-.7.4.2.8.8.4 1.8 1.7.4 3.3-2.1 2.3-1.4 2.4-8.7 2.7-.3-.5-.5-.4-.7-.2z"/>
        <path class="st3" d="M226.7 132.1c-1-1.2-1.7-1.6-.8-2.8.1-.2.4-.2 1.4 0 .5.1 2.1 2.1.7 3.3-.4.2-.7.3-1.3-.5zm-1.5 3.8c-.6.2-1.5-2.5-1.5-2.7.1-.3.1-.5 1.3-.6.5 0 1.5 1 1.4 2.2-.1.7-1.1 1.1-1.2 1.1zm4.8-6.8c-.5-.6-1.7-1.6-1.4-2.2.4-.7.8-1 2.1-.6.8.3 2.3 1.6.7 3.2-.5.2-.7.3-1.4-.4z"/>
        <path class="st3" d="M236.1 139.1c.8 3.5-3 3.2-4.6 2.3-2.5-1.5-4.7-1.9-5.5-2.9-.5-.6-1.2-2-.5-2.1.6-.1 1.2-.6 1.5-.9.1-.1-.1-1.1.1-1.1.1 0-.1 1 2.3 2.2 1 .5 3.3 1.4 4.1 1.6.6.1 1.2.4 2.3.6.3.1.3.2.3.3z"/>
        <path class="st3" d="M240.8 133.5c-2.6-.1-3.7 0-4.4 0-3.3.3-4.7-.9-5.4-1.8-.7-.6-.9-1.1-1.4-1.6-.4-.3-.9-1.1-.6.1.1.5.6.9.2 1.8-.3.6-.4.9-1.4 1.5-.1 0-.2.1-.1.1.3.2.6 2 3.3 2.7 3.6.9 5.2 1.8 6 2h.5c1.1-.1 1.5-.2 1.9-.5.4-.3 2.2-1.9 1.7-3.8 0-.3-.1-.5-.3-.5z"/>
        <path class="st3" d="M245.7 127.4c.3 0 .7 3.9-2 4.9-1.3.5-2.1.1-3.4.2-2.3-.1-4.1.1-5.1 0-1.4 0-2.4-.3-3.2-1.1-.4-.4-1.2-1-.6-1.3.6-.2.9-.3 1.4-1.2.6-1.2-.2-2 .5-1.7.6.3.7.3 1.4.8 2.6 1.8 10.9 3.8 10.7-.3-.1-.2.2-.4.3-.3zm-4.2-2.8c.5 0 .9.3 1.1.4.5.2 2.4.6 1.5 1.6-.9 1.1-3.4.1-4.3-.1-.4-.2-.5-.4-.5-.7.1-.4.3-1.2 2.2-1.2zm13.9-7.2c-2 0-6.7-1-9.2-.6-3-.6-8.3 0-10-.1-1.5 0-4.8-.3-7.1 0 .6.3 3 2.1 6.8 3 1.3.3 2.3.9 3.4 2.3 2.6.4 6.4.6 6.6.2.1-.2.1-.4.6-.3.4.1.2.2 1 .2 4.1.1 6.3 0 6.3 0 .9-.1.6-.4.9-.5.3-.1.1.2 1 .3.5.1 1.8.2 5.5.2 3.2.1 4-4.8-1.5-5-3.8.1-3.8.4-4.3.3z"/>
        <path class="st5" d="M703.6 133.5l-1.3.1c.8 1.4-1.1 6.3-5.1 5.6.5 2.7-1.8 4.3-4.3 3.6-2.2-.6-3.5-.8-7.4-.1-4.8.9-10.4 2.4-16.1-1-.5-.3-1.1 0-1.2.3-.3.6-.1 2.5-1.6 2.5h-5.8c-2.1 0-3.7-3-3.7-12.7 0-10 .1-14 4.3-14h5.2c1.3 0 1.5.9 1.7 1.5.1.3.6.5.9.3.5-.2 5.7-2.5 10.1-2.9 4.1-.4 5.7-1.7 8.5-1.3 3.3.5 13.9.2 17.1.1 3.1 0 8.1 1 14.7.8 6.3-.1 6.4 7.2.7 6.9-4.5-.3-4.7.3-6.2.1-2.7-.3-5.7 0-7.9.1-1 .1-2-.2-4.9.1 1.6.4 1.6.8 3.9 1.8 3.3 1.7 1.4 8-1.6 8.2z"/>
        <path class="st3" d="M665.3 130.9c-.1 4 .7 10.9.9 11.6.2.6-.2 1-1.1.9-.6-.1-3.7 0-3.7 0-1.4 0-3-1.4-3-12.1.1-11 .5-12.4 3.8-12.4l4 .1c.2 0 .4.2.6.4.2.5-1.2 1.4-1.5 11.5z"/>
        <path class="st3" d="M674.7 132c-.2.2-.2.5-.2.6.4.7 1.2.2 1.8.1.5 0 3.3-.5 4.4.2 1 .7 3.1 2 3.8 4.8.1.5 1 2.1 2.3 2.5.9.3.8 1.3 0 1.4-2.2.2-2.8 1.1-9.6 1.1-5.4-.3-10.4-1.3-10.7-8.5-.1-3.9.1-9.4.6-11.4.6-2 2.2-2 3.7-2.7 6-2.6 10-2.4 13.3-3.1 1.3-.3 2.3-.8 4 .4 3.5 2.5 7.8 3.3 8.9 4.1.7.5.9.7 1 1 .2.4.9.5 1.6 1 .4.3.6.4 1 .6-.6.8-1.1-.1-2 1.6-.2.4 0 1 .1 1.3.4.7 1.9.8 2.4.9l1.5.3c1.4.3 1.8-1.1 1.8-.6.3 2.5-3.1 2-4.2 1.8-1.1-.1-2-.6-3.1-.9-.5-.4-3-.4-3-2.2 0-.3 0-.9-.8-.6-.6.2-3.5.2-3.9-.6-.2-.4-.4-.6-.8-.8-.4-.2-.6.1-.6.5.1.6 0 1.4-.8 1.6-.7.2-1.1.2-1.6-.1-.6-.3-1.6-1-2.1-.9-.4.1-.7.4.2.8.8.4 1.8 1.7.4 3.3-2.1 2.3-1.4 2.4-8.7 2.7-.3-.5-.5-.4-.7-.2z"/>
        <path class="st3" d="M686.7 132.1c-1-1.2-1.7-1.6-.8-2.8.1-.2.4-.2 1.4 0 .5.1 2.1 2.1.7 3.3-.4.2-.7.3-1.3-.5zm-1.5 3.8c-.6.2-1.5-2.5-1.5-2.7.1-.3.1-.5 1.3-.6.5 0 1.5 1 1.4 2.2-.1.7-1.1 1.1-1.2 1.1zm4.8-6.8c-.5-.6-1.7-1.6-1.4-2.2.4-.7.8-1 2.1-.6.8.3 2.3 1.6.7 3.2-.5.2-.7.3-1.4-.4z"/>
        <path class="st3" d="M696.1 139.1c.8 3.5-3 3.2-4.6 2.3-2.5-1.5-4.7-1.9-5.5-2.9-.5-.6-1.2-2-.5-2.1.6-.1 1.2-.6 1.5-.9.1-.1-.1-1.1.1-1.1.1 0-.1 1 2.3 2.2 1 .5 3.3 1.4 4.1 1.6.6.1 1.2.4 2.3.6.3.1.3.2.3.3z"/>
        <path class="st3" d="M700.8 133.5c-2.6-.1-3.7 0-4.4 0-3.3.3-4.7-.9-5.4-1.8-.7-.6-.9-1.1-1.4-1.6-.4-.3-.9-1.1-.6.1.1.5.6.9.2 1.8-.3.6-.4.9-1.4 1.5-.1 0-.2.1-.1.1.3.2.6 2 3.3 2.7 3.6.9 5.2 1.8 6 2h.5c1.1-.1 1.5-.2 1.9-.5.4-.3 2.2-1.9 1.7-3.8 0-.3-.1-.5-.3-.5z"/>
        <path class="st3" d="M705.7 127.4c.3 0 .7 3.9-2 4.9-1.3.5-2.1.1-3.4.2-2.3-.1-4.1.1-5.1 0-1.4 0-2.4-.3-3.2-1.1-.4-.4-1.2-1-.6-1.3.6-.2.9-.3 1.4-1.2.6-1.2-.2-2 .5-1.7.6.3.7.3 1.4.8 2.6 1.8 10.9 3.8 10.7-.3-.1-.2.2-.4.3-.3zm-4.2-2.8c.5 0 .9.3 1.1.4.5.2 2.4.6 1.5 1.6-.9 1.1-3.4.1-4.3-.1-.4-.2-.5-.4-.5-.7.1-.4.3-1.2 2.2-1.2zm13.9-7.2c-2 0-6.7-1-9.2-.6-3-.6-8.3 0-10-.1-1.5 0-4.8-.3-7.1 0 .6.3 3 2.1 6.8 3 1.3.3 2.3.9 3.4 2.3 2.6.4 6.4.6 6.6.2.1-.2.1-.4.6-.3.4.1.2.2 1 .2 4.1.1 6.3 0 6.3 0 .9-.1.6-.4.9-.5.3-.1.1.2 1 .3.5.1 1.8.2 5.5.2 3.2.1 4-4.8-1.5-5-3.8.1-3.8.4-4.3.3z"/>
        <path class="st4" d="M493.6 133.5l-1.3.1c.8 1.4-1.1 6.3-5.1 5.6.5 2.7-1.8 4.3-4.3 3.6-2.2-.6-3.5-.8-7.4-.1-4.8.9-10.4 2.4-16.1-1-.5-.3-1.1 0-1.2.3-.3.6-.1 2.5-1.6 2.5h-5.8c-2.1 0-3.7-3-3.7-12.7 0-10 .1-14 4.3-14h5.2c1.3 0 1.5.9 1.7 1.5.1.3.6.5.9.3.5-.2 5.7-2.5 10.1-2.9 4.1-.4 5.7-1.7 8.5-1.3 3.3.5 13.9.2 17.1.1 3.1 0 8.1 1 14.7.8 6.3-.1 6.4 7.2.7 6.9-4.5-.3-4.7.3-6.2.1-2.7-.3-5.7 0-7.9.1-1 .1-2-.2-4.9.1 1.6.4 1.6.8 3.9 1.8 3.3 1.7 1.4 8-1.6 8.2z"/>
        <path class="st3" d="M455.3 130.9c-.1 4 .7 10.9.9 11.6.2.6-.2 1-1.1.9-.6-.1-3.7 0-3.7 0-1.4 0-3-1.4-3-12.1.1-11 .5-12.4 3.8-12.4l4 .1c.2 0 .4.2.6.4.2.5-1.2 1.4-1.5 11.5z"/>
        <path class="st3" d="M464.7 132c-.2.2-.2.5-.2.6.4.7 1.2.2 1.8.1.5 0 3.3-.5 4.4.2 1 .7 3.1 2 3.8 4.8.1.5 1 2.1 2.3 2.5.9.3.8 1.3 0 1.4-2.2.2-2.8 1.1-9.6 1.1-5.4-.3-10.4-1.3-10.7-8.5-.1-3.9.1-9.4.6-11.4.6-2 2.2-2 3.7-2.7 6-2.6 10-2.4 13.3-3.1 1.3-.3 2.3-.8 4 .4 3.5 2.5 7.8 3.3 8.9 4.1.7.5.9.7 1 1 .2.4.9.5 1.6 1 .4.3.6.4 1 .6-.6.8-1.1-.1-2 1.6-.2.4 0 1 .1 1.3.4.7 1.9.8 2.4.9l1.5.3c1.4.3 1.8-1.1 1.8-.6.3 2.5-3.1 2-4.2 1.8-1.1-.1-2-.6-3.1-.9-.5-.4-3-.4-3-2.2 0-.3 0-.9-.8-.6-.6.2-3.5.2-3.9-.6-.2-.4-.4-.6-.8-.8-.4-.2-.6.1-.6.5.1.6 0 1.4-.8 1.6-.7.2-1.1.2-1.6-.1-.6-.3-1.6-1-2.1-.9-.4.1-.7.4.2.8.8.4 1.8 1.7.4 3.3-2.1 2.3-1.4 2.4-8.7 2.7-.3-.5-.5-.4-.7-.2z"/>
        <path class="st3" d="M476.7 132.1c-1-1.2-1.7-1.6-.8-2.8.1-.2.4-.2 1.4 0 .5.1 2.1 2.1.7 3.3-.4.2-.7.3-1.3-.5zm-1.5 3.8c-.6.2-1.5-2.5-1.5-2.7.1-.3.1-.5 1.3-.6.5 0 1.5 1 1.4 2.2-.1.7-1.1 1.1-1.2 1.1zm4.8-6.8c-.5-.6-1.7-1.6-1.4-2.2.4-.7.8-1 2.1-.6.8.3 2.3 1.6.7 3.2-.5.2-.7.3-1.4-.4z"/>
        <path class="st3" d="M486.1 139.1c.8 3.5-3 3.2-4.6 2.3-2.5-1.5-4.7-1.9-5.5-2.9-.5-.6-1.2-2-.5-2.1.6-.1 1.2-.6 1.5-.9.1-.1-.1-1.1.1-1.1.1 0-.1 1 2.3 2.2 1 .5 3.3 1.4 4.1 1.6.6.1 1.2.4 2.3.6.3.1.3.2.3.3z"/>
        <path class="st3" d="M490.8 133.5c-2.6-.1-3.7 0-4.4 0-3.3.3-4.7-.9-5.4-1.8-.7-.6-.9-1.1-1.4-1.6-.4-.3-.9-1.1-.6.1.1.5.6.9.2 1.8-.3.6-.4.9-1.4 1.5-.1 0-.2.1-.1.1.3.2.6 2 3.3 2.7 3.6.9 5.2 1.8 6 2h.5c1.1-.1 1.5-.2 1.9-.5.4-.3 2.2-1.9 1.7-3.8 0-.3-.1-.5-.3-.5z"/>
        <path class="st3" d="M495.7 127.4c.3 0 .7 3.9-2 4.9-1.3.5-2.1.1-3.4.2-2.3-.1-4.1.1-5.1 0-1.4 0-2.4-.3-3.2-1.1-.4-.4-1.2-1-.6-1.3.6-.2.9-.3 1.4-1.2.6-1.2-.2-2 .5-1.7.6.3.7.3 1.4.8 2.6 1.8 10.9 3.8 10.7-.3-.1-.2.2-.4.3-.3zm-4.2-2.8c.5 0 .9.3 1.1.4.5.2 2.4.6 1.5 1.6-.9 1.1-3.4.1-4.3-.1-.4-.2-.5-.4-.5-.7.1-.4.3-1.2 2.2-1.2zm13.9-7.2c-2 0-6.7-1-9.2-.6-3-.6-8.3 0-10-.1-1.5 0-4.8-.3-7.1 0 .6.3 3 2.1 6.8 3 1.3.3 2.3.9 3.4 2.3 2.6.4 6.4.6 6.6.2.1-.2.1-.4.6-.3.4.1.2.2 1 .2 4.1.1 6.3 0 6.3 0 .9-.1.6-.4.9-.5.3-.1.1.2 1 .3.5.1 1.8.2 5.5.2 3.2.1 4-4.8-1.5-5-3.8.1-3.8.4-4.3.3z"/>
        <path class="st5" d="M953.6 133.5l-1.3.1c.8 1.4-1.1 6.3-5.1 5.6.5 2.7-1.8 4.3-4.3 3.6-2.2-.6-3.5-.8-7.4-.1-4.8.9-10.4 2.4-16.1-1-.5-.3-1.1 0-1.2.3-.3.6-.1 2.5-1.6 2.5h-5.8c-2.1 0-3.7-3-3.7-12.7 0-10 .1-14 4.3-14h5.2c1.3 0 1.5.9 1.7 1.5.1.3.6.5.9.3.5-.2 5.7-2.5 10.1-2.9 4.1-.4 5.7-1.7 8.5-1.3 3.3.5 13.9.2 17.1.1 3.1 0 8.1 1 14.7.8 6.3-.1 6.4 7.2.7 6.9-4.5-.3-4.7.3-6.2.1-2.7-.3-5.7 0-7.9.1-1 .1-2-.2-4.9.1 1.6.4 1.6.8 3.9 1.8 3.3 1.7 1.4 8-1.6 8.2z"/>
        <path class="st3" d="M915.3 130.9c-.1 4 .7 10.9.9 11.6.2.6-.2 1-1.1.9-.6-.1-3.7 0-3.7 0-1.4 0-3-1.4-3-12.1.1-11 .5-12.4 3.8-12.4l4 .1c.2 0 .4.2.6.4.2.5-1.2 1.4-1.5 11.5z"/>
        <path class="st3" d="M924.7 132c-.2.2-.2.5-.2.6.4.7 1.2.2 1.8.1.5 0 3.3-.5 4.4.2 1 .7 3.1 2 3.8 4.8.1.5 1 2.1 2.3 2.5.9.3.8 1.3 0 1.4-2.2.2-2.8 1.1-9.6 1.1-5.4-.3-10.4-1.3-10.7-8.5-.1-3.9.1-9.4.6-11.4.6-2 2.2-2 3.7-2.7 6-2.6 10-2.4 13.3-3.1 1.3-.3 2.3-.8 4 .4 3.5 2.5 7.8 3.3 8.9 4.1.7.5.9.7 1 1 .2.4.9.5 1.6 1 .4.3.6.4 1 .6-.6.8-1.1-.1-2 1.6-.2.4 0 1 .1 1.3.4.7 1.9.8 2.4.9l1.5.3c1.4.3 1.8-1.1 1.8-.6.3 2.5-3.1 2-4.2 1.8-1.1-.1-2-.6-3.1-.9-.5-.4-3-.4-3-2.2 0-.3 0-.9-.8-.6-.6.2-3.5.2-3.9-.6-.2-.4-.4-.6-.8-.8-.4-.2-.6.1-.6.5.1.6 0 1.4-.8 1.6-.7.2-1.1.2-1.6-.1-.6-.3-1.6-1-2.1-.9-.4.1-.7.4.2.8.8.4 1.8 1.7.4 3.3-2.1 2.3-1.4 2.4-8.7 2.7-.3-.5-.5-.4-.7-.2z"/>
        <path class="st3" d="M936.7 132.1c-1-1.2-1.7-1.6-.8-2.8.1-.2.4-.2 1.4 0 .5.1 2.1 2.1.7 3.3-.4.2-.7.3-1.3-.5zm-1.5 3.8c-.6.2-1.5-2.5-1.5-2.7.1-.3.1-.5 1.3-.6.5 0 1.5 1 1.4 2.2-.1.7-1.1 1.1-1.2 1.1zm4.8-6.8c-.5-.6-1.7-1.6-1.4-2.2.4-.7.8-1 2.1-.6.8.3 2.3 1.6.7 3.2-.5.2-.7.3-1.4-.4z"/>
        <path class="st3" d="M946.1 139.1c.8 3.5-3 3.2-4.6 2.3-2.5-1.5-4.7-1.9-5.5-2.9-.5-.6-1.2-2-.5-2.1.6-.1 1.2-.6 1.5-.9.1-.1-.1-1.1.1-1.1.1 0-.1 1 2.3 2.2 1 .5 3.3 1.4 4.1 1.6.6.1 1.2.4 2.3.6.3.1.3.2.3.3z"/>
        <path class="st3" d="M950.8 133.5c-2.6-.1-3.7 0-4.4 0-3.3.3-4.7-.9-5.4-1.8-.7-.6-.9-1.1-1.4-1.6-.4-.3-.9-1.1-.6.1.1.5.6.9.2 1.8-.3.6-.4.9-1.4 1.5-.1 0-.2.1-.1.1.3.2.6 2 3.3 2.7 3.6.9 5.2 1.8 6 2h.5c1.1-.1 1.5-.2 1.9-.5.4-.3 2.2-1.9 1.7-3.8 0-.3-.1-.5-.3-.5z"/>
        <path class="st3" d="M955.7 127.4c.3 0 .7 3.9-2 4.9-1.3.5-2.1.1-3.4.2-2.3-.1-4.1.1-5.1 0-1.4 0-2.4-.3-3.2-1.1-.4-.4-1.2-1-.6-1.3.6-.2.9-.3 1.4-1.2.6-1.2-.2-2 .5-1.7.6.3.7.3 1.4.8 2.6 1.8 10.9 3.8 10.7-.3-.1-.2.2-.4.3-.3zm-4.2-2.8c.5 0 .9.3 1.1.4.5.2 2.4.6 1.5 1.6-.9 1.1-3.4.1-4.3-.1-.4-.2-.5-.4-.5-.7.1-.4.3-1.2 2.2-1.2zm13.9-7.2c-2 0-6.7-1-9.2-.6-3-.6-8.3 0-10-.1-1.5 0-4.8-.3-7.1 0 .6.3 3 2.1 6.8 3 1.3.3 2.3.9 3.4 2.3 2.6.4 6.4.6 6.6.2.1-.2.1-.4.6-.3.4.1.2.2 1 .2 4.1.1 6.3 0 6.3 0 .9-.1.6-.4.9-.5.3-.1.1.2 1 .3.5.1 1.8.2 5.5.2 3.2.1 4-4.8-1.5-5-3.8.1-3.8.4-4.3.3z"/>
        <path class="st5" d="M995 55h150v40H995z"/>
        <path class="st0" d="M1043.4 72.4h2v.8c.4-.4.7-.6 1-.8.3-.1.6-.2 1-.2.5 0 1.1.2 1.6.5l-.9 1.8c-.4-.3-.7-.4-1.1-.4-1.1 0-1.6.8-1.6 2.4v4.4h-2v-8.5zm11.7 1.4l-1.6.9c-.3-.5-.6-.8-1-.8-.2 0-.3.1-.5.2s-.2.3-.2.5c0 .3.4.7 1.1 1 1 .5 1.8.9 2.1 1.2s.5.9.5 1.5c0 .8-.3 1.5-.9 2.1-.6.5-1.3.8-2.1.8-1.4 0-2.5-.7-3-2.1l1.7-.8c.2.4.4.7.5.8.2.2.5.3.9.3.7 0 1-.3 1-.9 0-.4-.3-.7-.8-1l-.6-.3-.6-.3c-.6-.3-1-.6-1.2-.8-.3-.4-.4-.8-.4-1.4 0-.7.3-1.4.8-1.8.5-.5 1.2-.7 1.9-.7 1.1-.1 1.9.5 2.4 1.6zm7.3 0l-1.6.9c-.3-.5-.6-.8-1-.8-.2 0-.3.1-.5.2s-.2.3-.2.5c0 .3.4.7 1.1 1 1 .5 1.8.9 2.1 1.2s.5.9.5 1.5c0 .8-.3 1.5-.9 2.1-.6.5-1.3.8-2.1.8-1.4 0-2.5-.7-3.1-2.1l1.7-.8c.2.4.4.7.5.8.2.2.5.3.9.3.7 0 1-.3 1-.9 0-.4-.3-.7-.8-1l-.6-.3-.6-.3c-.6-.3-1-.6-1.2-.8-.3-.4-.4-.8-.4-1.4 0-.7.3-1.4.8-1.8.5-.5 1.2-.7 1.9-.7 1.2-.1 2 .5 2.5 1.6zm2.7 6.1c0-.3.1-.6.4-.9s.5-.4.9-.4.6.1.9.4.4.5.4.9c0 .3-.1.6-.4.9-.2.2-.5.4-.9.4-.3 0-.6-.1-.9-.4s-.4-.5-.4-.9zm7.9-3.6l-3.1-3.9h2.4l1.9 2.5 1.9-2.5h2.4l-3.2 3.9 3.7 4.6h-2.4l-2.5-3.2-2.6 3.2h-2.4l3.9-4.6zm7.4-3.9h2v.8c.4-.4.7-.7 1-.8.3-.1.6-.2 1.1-.2 1 0 1.7.4 2.3 1.3.6-.8 1.5-1.3 2.5-1.3 1.9 0 2.9 1.2 2.9 3.5V81h-2v-4.8c0-.8-.1-1.4-.3-1.7-.2-.3-.5-.5-1-.5s-.9.2-1.2.6-.4 1.1-.4 2V81h-2v-4.7c0-1.5-.4-2.3-1.3-2.3-.6 0-1 .2-1.2.6s-.4 1.1-.4 2V81h-2v-8.6zm16.2-6.3v14.8h-2V66.1h2z"/>
        <path class="st3" d="M1142 58v34H998V58h144m1-1H997v36h146V57z"/>
        <path class="st5" d="M995 105h150v40H995z"/>
        <path class="st0" d="M1029 118.8c0-.3.1-.6.4-.9s.6-.4.9-.4c.4 0 .7.1.9.4.3.2.4.5.4.9s-.1.7-.4.9c-.2.3-.5.4-.9.4s-.7-.1-.9-.4-.4-.5-.4-.9zm2.3 3.6v8.6h-2v-8.6h2zm2.5 0h2v.8c.7-.7 1.5-1 2.3-1 1 0 1.8.3 2.3.9.5.5.7 1.4.7 2.6v5.2h-2v-4.8c0-.8-.1-1.4-.4-1.7-.2-.3-.6-.5-1.2-.5-.7 0-1.1.2-1.4.7-.3.4-.4 1.2-.4 2.2v4.1h-2v-8.5zm16.2-6.3h2v14.8h-2v-.9c-.8.8-1.7 1.1-2.6 1.1-1.2 0-2.1-.4-2.9-1.3-.8-.9-1.2-2-1.2-3.3 0-1.3.4-2.3 1.2-3.2.8-.9 1.7-1.3 2.9-1.3 1 0 1.9.4 2.7 1.2v-7.1zm-4.7 10.5c0 .8.2 1.5.7 2 .5.5 1 .8 1.7.8s1.3-.3 1.8-.8.7-1.2.7-2-.2-1.5-.7-2c-.5-.5-1-.8-1.8-.8-.7 0-1.2.3-1.7.8-.5.6-.7 1.2-.7 2zm17 .5h-6.1c.1.7.3 1.3.7 1.7.4.4.9.6 1.6.6.5 0 .9-.1 1.2-.4.3-.2.7-.7 1.1-1.3l1.7.9c-.3.4-.5.8-.8 1.1s-.6.6-.9.8c-.3.2-.7.3-1.1.4s-.8.1-1.2.1c-1.3 0-2.3-.4-3.1-1.2-.8-.8-1.2-1.9-1.2-3.3s.4-2.4 1.1-3.3c.8-.8 1.8-1.2 3-1.2 1.3 0 2.3.4 3 1.2.7.8 1.1 1.9 1.1 3.3l-.1.6zm-2.1-1.6c-.3-1.1-.9-1.6-2-1.6-.2 0-.5 0-.7.1l-.6.3c-.2.1-.3.3-.4.5s-.2.4-.3.7h4zm6.5.8l-3.1-3.9h2.4l1.9 2.5 1.9-2.5h2.4l-3.2 3.9 3.7 4.6h-2.4l-2.5-3.2-2.6 3.2h-2.4l3.9-4.6zm7.7 3.6c0-.3.1-.6.4-.9s.5-.4.9-.4.6.1.9.4.4.5.4.9c0 .3-.1.6-.4.9-.2.2-.5.4-.9.4-.3 0-.6-.1-.9-.4s-.4-.5-.4-.9zm5.3-13.8h2v7c.7-.6 1.5-.9 2.3-.9 1 0 1.7.3 2.3.9.5.5.7 1.4.7 2.6v5.2h-2v-5.1c0-.7-.1-1.2-.4-1.5-.2-.3-.6-.5-1.2-.5-.7 0-1.2.2-1.5.6-.3.4-.4 1.2-.4 2.2v4.1h-2v-14.6zm11.9 8.1v6.7h-2v-6.7h-.8v-1.8h.8v-3.1h2v3.1h1.5v1.8h-1.5zm2.9-1.8h2v.8c.4-.4.7-.7 1-.8.3-.1.6-.2 1.1-.2 1 0 1.7.4 2.3 1.3.6-.8 1.5-1.3 2.5-1.3 1.9 0 2.9 1.2 2.9 3.5v5.3h-2v-4.8c0-.8-.1-1.4-.3-1.7-.2-.3-.5-.5-1-.5s-.9.2-1.2.6-.4 1.1-.4 2v4.4h-2v-4.7c0-1.5-.4-2.3-1.3-2.3-.6 0-1 .2-1.2.6s-.4 1.1-.4 2v4.4h-2v-8.6zm16.2-6.3v14.8h-2v-14.8h2z"/>
        <path class="st3" d="M1142 108v34H998v-34h144m1-1H997v36h146v-36z"/>
        <path class="st5" d="M995 155h150v40H995z"/>
        <path class="st0" d="M1027.7 173.8l-1.6.9c-.3-.5-.6-.8-1-.8-.2 0-.3.1-.5.2s-.2.3-.2.5c0 .3.4.7 1.1 1 1 .5 1.8.9 2.1 1.2s.5.9.5 1.5c0 .8-.3 1.5-.9 2.1-.6.5-1.3.8-2.1.8-1.4 0-2.5-.7-3-2.1l1.7-.8c.2.4.4.7.5.8.2.2.5.3.9.3.7 0 1-.3 1-.9 0-.4-.3-.7-.8-1l-.6-.3-.6-.3c-.6-.3-1-.6-1.2-.8-.3-.4-.4-.8-.4-1.4 0-.7.3-1.4.8-1.8.5-.5 1.2-.7 1.9-.7 1.1-.1 1.9.5 2.4 1.6zm2.1-5c0-.3.1-.6.4-.9s.6-.4.9-.4c.4 0 .7.1.9.4.3.2.4.5.4.9s-.1.7-.4.9c-.2.3-.5.4-.9.4s-.7-.1-.9-.4-.4-.5-.4-.9zm2.2 3.6v8.6h-2v-8.6h2zm4.6 1.8v6.7h-2v-6.7h-.8v-1.8h.8v-3.1h2v3.1h1.5v1.8h-1.5zm10.8 2.9h-6.1c.1.7.3 1.3.7 1.7.4.4.9.6 1.6.6.5 0 .9-.1 1.2-.4.3-.2.7-.7 1.1-1.3l1.7.9c-.3.4-.5.8-.8 1.1s-.6.6-.9.8c-.3.2-.7.3-1.1.4s-.8.1-1.2.1c-1.3 0-2.3-.4-3.1-1.2-.8-.8-1.2-1.9-1.2-3.3s.4-2.4 1.1-3.3c.8-.8 1.8-1.2 3-1.2 1.3 0 2.3.4 3 1.2.7.8 1.1 1.9 1.1 3.3l-.1.6zm-2-1.6c-.3-1.1-.9-1.6-2-1.6-.2 0-.5 0-.7.1l-.6.3c-.2.1-.3.3-.4.5s-.2.4-.3.7h4zm4.2-3.1h2v.8c.4-.4.7-.7 1-.8.3-.1.6-.2 1.1-.2 1 0 1.7.4 2.3 1.3.6-.8 1.5-1.3 2.5-1.3 1.9 0 2.9 1.2 2.9 3.5v5.3h-2v-4.8c0-.8-.1-1.4-.3-1.7-.2-.3-.5-.5-1-.5s-.9.2-1.2.6-.4 1.1-.4 2v4.4h-2v-4.7c0-1.5-.4-2.3-1.3-2.3-.6 0-1 .2-1.2.6s-.4 1.1-.4 2v4.4h-2v-8.6zm20.5 0h2v8.6h-2v-1c-.8.8-1.7 1.1-2.6 1.1-1.2 0-2.2-.4-2.9-1.3-.8-.9-1.2-2-1.2-3.3 0-1.3.4-2.4 1.2-3.2s1.7-1.3 2.9-1.3c1 0 1.9.4 2.7 1.2v-.8zm-4.7 4.2c0 .8.2 1.5.7 2 .5.5 1 .8 1.7.8s1.3-.3 1.8-.8.7-1.2.7-2-.2-1.5-.7-2c-.5-.5-1-.8-1.8-.8-.7 0-1.2.3-1.7.8-.4.6-.7 1.2-.7 2zm11.2 9h-2v-13.2h2v.9c.8-.8 1.7-1.2 2.7-1.2 1.2 0 2.1.4 2.9 1.3.8.9 1.2 1.9 1.2 3.3 0 1.3-.4 2.4-1.2 3.2-.8.8-1.7 1.3-2.9 1.3-1 0-1.9-.4-2.7-1.2v5.6zm4.7-8.9c0-.8-.2-1.5-.7-2-.5-.5-1-.8-1.7-.8s-1.3.3-1.8.8-.7 1.2-.7 2 .2 1.5.7 2c.4.5 1 .8 1.8.8.7 0 1.3-.3 1.7-.8.5-.6.7-1.2.7-2zm4.4 3.2c0-.3.1-.6.4-.9s.5-.4.9-.4.6.1.9.4.4.5.4.9c0 .3-.1.6-.4.9-.2.2-.5.4-.9.4-.3 0-.6-.1-.9-.4s-.4-.5-.4-.9zm7.9-3.6l-3.1-3.9h2.4l1.9 2.5 1.9-2.5h2.4l-3.2 3.9 3.7 4.6h-2.4l-2.5-3.2-2.6 3.2h-2.4l3.9-4.6zm7.4-3.9h2v.8c.4-.4.7-.7 1-.8.3-.1.6-.2 1.1-.2 1 0 1.7.4 2.3 1.3.6-.8 1.5-1.3 2.5-1.3 1.9 0 2.9 1.2 2.9 3.5v5.3h-2v-4.8c0-.8-.1-1.4-.3-1.7-.2-.3-.5-.5-1-.5s-.9.2-1.2.6-.4 1.1-.4 2v4.4h-2v-4.7c0-1.5-.4-2.3-1.3-2.3-.6 0-1 .2-1.2.6s-.4 1.1-.4 2v4.4h-2v-8.6zm16.2-6.3v14.8h-2v-14.8h2z"/>
        <path class="st3" d="M1142 158v34H998v-34h144m1-1H997v36h146v-36z"/>
    </g>
</svg>
